M48
METRIC,LZ,000.000
;FILE_FORMAT=3:3
;TYPE=PLATED
;Layer: PTH_Through
;EasyEDA v6.5.51, 2026-01-01 11:10:02
;c2e0b91a54b643c29b893d635b68bbd8,b0fcb86846164242a958a805a75853bb,10
;Gerber Generator version 0.2
;Holesize 1 = 0.306 mm
T01C0.306
;Holesize 2 = 0.310 mm
T02C0.310
;Holesize 3 = 0.600 mm
T03C0.600
;Holesize 4 = 1.200 mm
T04C1.200
%
G05
G90
T01
X043307Y050927
X025400Y054483
X024638Y056896
X023212Y055626
X033005Y058370
X036085Y061450
X014152Y061401
X014459Y054209
X036239Y053498
X034544Y058420
X026356Y061722
X025908Y056261
X024638Y055245
T02
X028336Y050502
X042001Y059019
X035052Y053213
X038289Y055753
X034290Y056261
X033593Y062103
X032131Y059309
X018858Y046990
X021783Y049500
X033782Y057785
X035560Y057785
X035687Y049530
X032258Y050673
X032258Y060833
X035433Y059817
X022975Y056896
X027940Y049022
T03
X006382Y059088G85X007182Y059088
X010381Y050448G85X011481Y050448
X010381Y059088G85X011481Y059088
X006382Y050448G85X007182Y050448
T04
X040513Y047625
X035052Y047498
X044958Y047625
X049022Y047752
X052070Y047879
M30
