G04 Layer: TopSilkscreenLayer*
G04 EasyEDA v6.5.51, 2026-01-01 11:10:02*
G04 c2e0b91a54b643c29b893d635b68bbd8,b0fcb86846164242a958a805a75853bb,10*
G04 Gerber Generator version 0.2*
G04 Scale: 100 percent, Rotated: No, Reflected: No *
G04 Dimensions in millimeters *
G04 leading zeros omitted , absolute positions ,4 integer and 5 decimal *
%FSLAX45Y45*%
%MOMM*%

%ADD10C,0.1524*%
%ADD11C,0.2540*%
%ADD12C,0.1500*%
%ADD13C,0.2000*%
%ADD14C,0.3000*%
%ADD15C,0.2489*%
%ADD16C,0.1520*%
%ADD17C,0.0195*%

%LPD*%
D10*
X4049013Y5030215D02*
G01*
X4106163Y5030215D01*
X4074922Y4988560D01*
X4090670Y4988560D01*
X4100829Y4983479D01*
X4106163Y4978400D01*
X4111243Y4962652D01*
X4111243Y4952237D01*
X4106163Y4936744D01*
X4095750Y4926329D01*
X4080256Y4921250D01*
X4064508Y4921250D01*
X4049013Y4926329D01*
X4043679Y4931410D01*
X4038600Y4941823D01*
X4145534Y5030215D02*
G01*
X4187190Y4921250D01*
X4228845Y5030215D02*
G01*
X4187190Y4921250D01*
X4273550Y5030215D02*
G01*
X4330700Y5030215D01*
X4299458Y4988560D01*
X4314952Y4988560D01*
X4325365Y4983479D01*
X4330700Y4978400D01*
X4335779Y4962652D01*
X4335779Y4952237D01*
X4330700Y4936744D01*
X4320286Y4926329D01*
X4304538Y4921250D01*
X4289043Y4921250D01*
X4273550Y4926329D01*
X4268215Y4931410D01*
X4263136Y4941823D01*
X3570477Y4991607D02*
G01*
X3565143Y5002021D01*
X3554729Y5012436D01*
X3544570Y5017515D01*
X3523741Y5017515D01*
X3513327Y5012436D01*
X3502913Y5002021D01*
X3497579Y4991607D01*
X3492500Y4975860D01*
X3492500Y4949952D01*
X3497579Y4934457D01*
X3502913Y4924044D01*
X3513327Y4913629D01*
X3523741Y4908550D01*
X3544570Y4908550D01*
X3554729Y4913629D01*
X3565143Y4924044D01*
X3570477Y4934457D01*
X3570477Y4949952D01*
X3544570Y4949952D02*
G01*
X3570477Y4949952D01*
X3604768Y5017515D02*
G01*
X3604768Y4908550D01*
X3604768Y5017515D02*
G01*
X3677411Y4908550D01*
X3677411Y5017515D02*
G01*
X3677411Y4908550D01*
X3711702Y5017515D02*
G01*
X3711702Y4908550D01*
X3711702Y5017515D02*
G01*
X3748024Y5017515D01*
X3763772Y5012436D01*
X3774186Y5002021D01*
X3779265Y4991607D01*
X3784600Y4975860D01*
X3784600Y4949952D01*
X3779265Y4934457D01*
X3774186Y4924044D01*
X3763772Y4913629D01*
X3748024Y4908550D01*
X3711702Y4908550D01*
X4483100Y5030215D02*
G01*
X4483100Y4921250D01*
X4483100Y5030215D02*
G01*
X4529836Y5030215D01*
X4545329Y5025136D01*
X4550663Y5019802D01*
X4555743Y5009387D01*
X4555743Y4998973D01*
X4550663Y4988560D01*
X4545329Y4983479D01*
X4529836Y4978400D01*
X4483100Y4978400D01*
X4519422Y4978400D02*
G01*
X4555743Y4921250D01*
X4590034Y5030215D02*
G01*
X4590034Y4921250D01*
X4590034Y5030215D02*
G01*
X4657597Y5030215D01*
X4590034Y4978400D02*
G01*
X4631690Y4978400D01*
X4590034Y4921250D02*
G01*
X4657597Y4921250D01*
X4764786Y5014721D02*
G01*
X4754372Y5025136D01*
X4738624Y5030215D01*
X4718050Y5030215D01*
X4702302Y5025136D01*
X4691888Y5014721D01*
X4691888Y5004307D01*
X4697222Y4993894D01*
X4702302Y4988560D01*
X4712715Y4983479D01*
X4743958Y4973065D01*
X4754372Y4967986D01*
X4759452Y4962652D01*
X4764786Y4952237D01*
X4764786Y4936744D01*
X4754372Y4926329D01*
X4738624Y4921250D01*
X4718050Y4921250D01*
X4702302Y4926329D01*
X4691888Y4936744D01*
X4799075Y5030215D02*
G01*
X4799075Y4921250D01*
X4799075Y5030215D02*
G01*
X4866640Y5030215D01*
X4799075Y4978400D02*
G01*
X4840477Y4978400D01*
X4799075Y4921250D02*
G01*
X4866640Y4921250D01*
X4937252Y5030215D02*
G01*
X4937252Y4921250D01*
X4900929Y5030215D02*
G01*
X4973574Y5030215D01*
X4962143Y5027421D02*
G01*
X4951729Y5037836D01*
X4936236Y5042915D01*
X4915408Y5042915D01*
X4899913Y5037836D01*
X4889500Y5027421D01*
X4889500Y5017007D01*
X4894579Y5006594D01*
X4899913Y5001260D01*
X4910327Y4996179D01*
X4941570Y4985765D01*
X4951729Y4980686D01*
X4957063Y4975352D01*
X4962143Y4964937D01*
X4962143Y4949444D01*
X4951729Y4939029D01*
X4936236Y4933950D01*
X4915408Y4933950D01*
X4899913Y4939029D01*
X4889500Y4949444D01*
X4996434Y5042915D02*
G01*
X5022595Y4933950D01*
X5048504Y5042915D02*
G01*
X5022595Y4933950D01*
X5048504Y5042915D02*
G01*
X5074411Y4933950D01*
X5100320Y5042915D02*
G01*
X5074411Y4933950D01*
X5134609Y5042915D02*
G01*
X5134609Y4933950D01*
X5134609Y5042915D02*
G01*
X5171186Y5042915D01*
X5186679Y5037836D01*
X5197093Y5027421D01*
X5202174Y5017007D01*
X5207508Y5001260D01*
X5207508Y4975352D01*
X5202174Y4959857D01*
X5197093Y4949444D01*
X5186679Y4939029D01*
X5171186Y4933950D01*
X5134609Y4933950D01*
X5319775Y5017007D02*
G01*
X5314441Y5027421D01*
X5304027Y5037836D01*
X5293613Y5042915D01*
X5273040Y5042915D01*
X5262625Y5037836D01*
X5252211Y5027421D01*
X5246877Y5017007D01*
X5241797Y5001260D01*
X5241797Y4975352D01*
X5246877Y4959857D01*
X5252211Y4949444D01*
X5262625Y4939029D01*
X5273040Y4933950D01*
X5293613Y4933950D01*
X5304027Y4939029D01*
X5314441Y4949444D01*
X5319775Y4959857D01*
X5354065Y5042915D02*
G01*
X5354065Y4933950D01*
X5354065Y4933950D02*
G01*
X5416295Y4933950D01*
X5450586Y5042915D02*
G01*
X5450586Y4933950D01*
X5523229Y5042915D02*
G01*
X5450586Y4970271D01*
X5476493Y4996179D02*
G01*
X5523229Y4933950D01*
X5266943Y5040121D02*
G01*
X5256529Y5050536D01*
X5241036Y5055615D01*
X5220208Y5055615D01*
X5204713Y5050536D01*
X5194300Y5040121D01*
X5194300Y5029707D01*
X5199379Y5019294D01*
X5204713Y5013960D01*
X5215127Y5008879D01*
X5246370Y4998465D01*
X5256529Y4993386D01*
X5261863Y4988052D01*
X5266943Y4977637D01*
X5266943Y4962144D01*
X5256529Y4951729D01*
X5241036Y4946650D01*
X5220208Y4946650D01*
X5204713Y4951729D01*
X5194300Y4962144D01*
X5301234Y5055615D02*
G01*
X5327395Y4946650D01*
X5353304Y5055615D02*
G01*
X5327395Y4946650D01*
X5353304Y5055615D02*
G01*
X5379211Y4946650D01*
X5405120Y5055615D02*
G01*
X5379211Y4946650D01*
X5439409Y5055615D02*
G01*
X5439409Y4946650D01*
X5439409Y5055615D02*
G01*
X5475986Y5055615D01*
X5491479Y5050536D01*
X5501893Y5040121D01*
X5506974Y5029707D01*
X5512308Y5013960D01*
X5512308Y4988052D01*
X5506974Y4972557D01*
X5501893Y4962144D01*
X5491479Y4951729D01*
X5475986Y4946650D01*
X5439409Y4946650D01*
X5546597Y5055615D02*
G01*
X5546597Y4946650D01*
X5612129Y5055615D02*
G01*
X5601715Y5050536D01*
X5591302Y5040121D01*
X5585968Y5029707D01*
X5580888Y5013960D01*
X5580888Y4988052D01*
X5585968Y4972557D01*
X5591302Y4962144D01*
X5601715Y4951729D01*
X5612129Y4946650D01*
X5632704Y4946650D01*
X5643118Y4951729D01*
X5653531Y4962144D01*
X5658865Y4972557D01*
X5663945Y4988052D01*
X5663945Y5013960D01*
X5658865Y5029707D01*
X5653531Y5040121D01*
X5643118Y5050536D01*
X5632704Y5055615D01*
X5612129Y5055615D01*
X2033777Y4890007D02*
G01*
X2028443Y4900421D01*
X2018029Y4910836D01*
X2007870Y4915915D01*
X1987041Y4915915D01*
X1976627Y4910836D01*
X1966213Y4900421D01*
X1960879Y4890007D01*
X1955800Y4874260D01*
X1955800Y4848352D01*
X1960879Y4832857D01*
X1966213Y4822444D01*
X1976627Y4812029D01*
X1987041Y4806950D01*
X2007870Y4806950D01*
X2018029Y4812029D01*
X2028443Y4822444D01*
X2033777Y4832857D01*
X2068068Y4895087D02*
G01*
X2078481Y4900421D01*
X2093975Y4915915D01*
X2093975Y4806950D01*
X1141221Y4584192D02*
G01*
X1146555Y4573778D01*
X1156970Y4563363D01*
X1167129Y4558284D01*
X1187957Y4558284D01*
X1198371Y4563363D01*
X1208786Y4573778D01*
X1214120Y4584192D01*
X1219200Y4599939D01*
X1219200Y4625847D01*
X1214120Y4641342D01*
X1208786Y4651755D01*
X1198371Y4662170D01*
X1187957Y4667250D01*
X1167129Y4667250D01*
X1156970Y4662170D01*
X1146555Y4651755D01*
X1141221Y4641342D01*
X1101852Y4584192D02*
G01*
X1101852Y4579112D01*
X1096518Y4568697D01*
X1091437Y4563363D01*
X1081023Y4558284D01*
X1060195Y4558284D01*
X1049781Y4563363D01*
X1044702Y4568697D01*
X1039368Y4579112D01*
X1039368Y4589526D01*
X1044702Y4599939D01*
X1055115Y4615434D01*
X1106931Y4667250D01*
X1034287Y4667250D01*
X3367277Y6401307D02*
G01*
X3361943Y6411721D01*
X3351529Y6422136D01*
X3341370Y6427215D01*
X3320541Y6427215D01*
X3310127Y6422136D01*
X3299713Y6411721D01*
X3294379Y6401307D01*
X3289300Y6385560D01*
X3289300Y6359652D01*
X3294379Y6344157D01*
X3299713Y6333744D01*
X3310127Y6323329D01*
X3320541Y6318250D01*
X3341370Y6318250D01*
X3351529Y6323329D01*
X3361943Y6333744D01*
X3367277Y6344157D01*
X3411981Y6427215D02*
G01*
X3469131Y6427215D01*
X3437890Y6385560D01*
X3453384Y6385560D01*
X3463797Y6380479D01*
X3469131Y6375400D01*
X3474211Y6359652D01*
X3474211Y6349237D01*
X3469131Y6333744D01*
X3458718Y6323329D01*
X3442970Y6318250D01*
X3427475Y6318250D01*
X3411981Y6323329D01*
X3406647Y6328410D01*
X3401568Y6338823D01*
X2973577Y6375907D02*
G01*
X2968243Y6386321D01*
X2957829Y6396736D01*
X2947670Y6401815D01*
X2926841Y6401815D01*
X2916427Y6396736D01*
X2906013Y6386321D01*
X2900679Y6375907D01*
X2895600Y6360160D01*
X2895600Y6334252D01*
X2900679Y6318757D01*
X2906013Y6308344D01*
X2916427Y6297929D01*
X2926841Y6292850D01*
X2947670Y6292850D01*
X2957829Y6297929D01*
X2968243Y6308344D01*
X2973577Y6318757D01*
X3059684Y6401815D02*
G01*
X3007868Y6329171D01*
X3085845Y6329171D01*
X3059684Y6401815D02*
G01*
X3059684Y6292850D01*
X2529077Y4890007D02*
G01*
X2523743Y4900421D01*
X2513329Y4910836D01*
X2503170Y4915915D01*
X2482341Y4915915D01*
X2471927Y4910836D01*
X2461513Y4900421D01*
X2456179Y4890007D01*
X2451100Y4874260D01*
X2451100Y4848352D01*
X2456179Y4832857D01*
X2461513Y4822444D01*
X2471927Y4812029D01*
X2482341Y4806950D01*
X2503170Y4806950D01*
X2513329Y4812029D01*
X2523743Y4822444D01*
X2529077Y4832857D01*
X2625597Y4915915D02*
G01*
X2573781Y4915915D01*
X2568447Y4869179D01*
X2573781Y4874260D01*
X2589275Y4879594D01*
X2604770Y4879594D01*
X2620518Y4874260D01*
X2630931Y4864100D01*
X2636011Y4848352D01*
X2636011Y4837937D01*
X2630931Y4822444D01*
X2620518Y4812029D01*
X2604770Y4806950D01*
X2589275Y4806950D01*
X2573781Y4812029D01*
X2568447Y4817110D01*
X2563368Y4827523D01*
X3786377Y6426707D02*
G01*
X3781043Y6437121D01*
X3770629Y6447536D01*
X3760470Y6452615D01*
X3739641Y6452615D01*
X3729227Y6447536D01*
X3718813Y6437121D01*
X3713479Y6426707D01*
X3708400Y6410960D01*
X3708400Y6385052D01*
X3713479Y6369557D01*
X3718813Y6359144D01*
X3729227Y6348729D01*
X3739641Y6343650D01*
X3760470Y6343650D01*
X3770629Y6348729D01*
X3781043Y6359144D01*
X3786377Y6369557D01*
X3882897Y6437121D02*
G01*
X3877818Y6447536D01*
X3862070Y6452615D01*
X3851909Y6452615D01*
X3836161Y6447536D01*
X3825747Y6431787D01*
X3820668Y6405879D01*
X3820668Y6379971D01*
X3825747Y6359144D01*
X3836161Y6348729D01*
X3851909Y6343650D01*
X3856990Y6343650D01*
X3872484Y6348729D01*
X3882897Y6359144D01*
X3888231Y6374637D01*
X3888231Y6379971D01*
X3882897Y6395465D01*
X3872484Y6405879D01*
X3856990Y6410960D01*
X3851909Y6410960D01*
X3836161Y6405879D01*
X3825747Y6395465D01*
X3820668Y6379971D01*
X3976877Y5766307D02*
G01*
X3971543Y5776721D01*
X3961129Y5787136D01*
X3950970Y5792215D01*
X3930141Y5792215D01*
X3919727Y5787136D01*
X3909313Y5776721D01*
X3903979Y5766307D01*
X3898900Y5750560D01*
X3898900Y5724652D01*
X3903979Y5709157D01*
X3909313Y5698744D01*
X3919727Y5688329D01*
X3930141Y5683250D01*
X3950970Y5683250D01*
X3961129Y5688329D01*
X3971543Y5698744D01*
X3976877Y5709157D01*
X4083811Y5792215D02*
G01*
X4031995Y5683250D01*
X4011168Y5792215D02*
G01*
X4083811Y5792215D01*
X2804922Y4558792D02*
G01*
X2810256Y4548378D01*
X2820670Y4537963D01*
X2830829Y4532884D01*
X2851658Y4532884D01*
X2862072Y4537963D01*
X2872486Y4548378D01*
X2877820Y4558792D01*
X2882900Y4574539D01*
X2882900Y4600447D01*
X2877820Y4615942D01*
X2872486Y4626355D01*
X2862072Y4636770D01*
X2851658Y4641850D01*
X2830829Y4641850D01*
X2820670Y4636770D01*
X2810256Y4626355D01*
X2804922Y4615942D01*
X2744724Y4532884D02*
G01*
X2760218Y4537963D01*
X2765552Y4548378D01*
X2765552Y4558792D01*
X2760218Y4569205D01*
X2749804Y4574539D01*
X2729229Y4579620D01*
X2713481Y4584700D01*
X2703068Y4595113D01*
X2697988Y4605528D01*
X2697988Y4621276D01*
X2703068Y4631689D01*
X2708402Y4636770D01*
X2723895Y4641850D01*
X2744724Y4641850D01*
X2760218Y4636770D01*
X2765552Y4631689D01*
X2770631Y4621276D01*
X2770631Y4605528D01*
X2765552Y4595113D01*
X2755138Y4584700D01*
X2739390Y4579620D01*
X2718815Y4574539D01*
X2708402Y4569205D01*
X2703068Y4558792D01*
X2703068Y4548378D01*
X2708402Y4537963D01*
X2723895Y4532884D01*
X2744724Y4532884D01*
X2182622Y5981192D02*
G01*
X2187956Y5970778D01*
X2198370Y5960363D01*
X2208529Y5955284D01*
X2229358Y5955284D01*
X2239772Y5960363D01*
X2250186Y5970778D01*
X2255520Y5981192D01*
X2260600Y5996939D01*
X2260600Y6022847D01*
X2255520Y6038342D01*
X2250186Y6048755D01*
X2239772Y6059170D01*
X2229358Y6064250D01*
X2208529Y6064250D01*
X2198370Y6059170D01*
X2187956Y6048755D01*
X2182622Y6038342D01*
X2080768Y5991605D02*
G01*
X2086102Y6007100D01*
X2096515Y6017513D01*
X2112009Y6022847D01*
X2117090Y6022847D01*
X2132838Y6017513D01*
X2143252Y6007100D01*
X2148331Y5991605D01*
X2148331Y5986526D01*
X2143252Y5970778D01*
X2132838Y5960363D01*
X2117090Y5955284D01*
X2112009Y5955284D01*
X2096515Y5960363D01*
X2086102Y5970778D01*
X2080768Y5991605D01*
X2080768Y6017513D01*
X2086102Y6043676D01*
X2096515Y6059170D01*
X2112009Y6064250D01*
X2122424Y6064250D01*
X2137918Y6059170D01*
X2143252Y6048755D01*
X2350515Y5626100D02*
G01*
X2241550Y5626100D01*
X2350515Y5626100D02*
G01*
X2350515Y5589778D01*
X2345436Y5574029D01*
X2335022Y5563870D01*
X2324608Y5558536D01*
X2308859Y5553455D01*
X2282952Y5553455D01*
X2267458Y5558536D01*
X2257043Y5563870D01*
X2246629Y5574029D01*
X2241550Y5589778D01*
X2241550Y5626100D01*
X2329688Y5519165D02*
G01*
X2335022Y5508752D01*
X2350515Y5493004D01*
X2241550Y5493004D01*
X4607242Y6242367D02*
G01*
X4607242Y6133401D01*
X4607242Y6133401D02*
G01*
X4669472Y6133401D01*
X4703762Y6242367D02*
G01*
X4703762Y6133401D01*
X4703762Y6242367D02*
G01*
X4771326Y6242367D01*
X4703762Y6190551D02*
G01*
X4745418Y6190551D01*
X4703762Y6133401D02*
G01*
X4771326Y6133401D01*
X4805616Y6242367D02*
G01*
X4805616Y6133401D01*
X4805616Y6242367D02*
G01*
X4842192Y6242367D01*
X4857686Y6237287D01*
X4868100Y6226873D01*
X4873180Y6216459D01*
X4878514Y6200711D01*
X4878514Y6174803D01*
X4873180Y6159309D01*
X4868100Y6148895D01*
X4857686Y6138481D01*
X4842192Y6133401D01*
X4805616Y6133401D01*
X4912804Y6221539D02*
G01*
X4923218Y6226873D01*
X4938712Y6242367D01*
X4938712Y6133401D01*
X1549400Y6363715D02*
G01*
X1549400Y6254750D01*
X1549400Y6363715D02*
G01*
X1596136Y6363715D01*
X1611629Y6358636D01*
X1616963Y6353302D01*
X1622044Y6342887D01*
X1622044Y6332473D01*
X1616963Y6322060D01*
X1611629Y6316979D01*
X1596136Y6311900D01*
X1549400Y6311900D01*
X1585721Y6311900D02*
G01*
X1622044Y6254750D01*
X1656334Y6342887D02*
G01*
X1666747Y6348221D01*
X1682495Y6363715D01*
X1682495Y6254750D01*
X1206500Y6401815D02*
G01*
X1206500Y6292850D01*
X1206500Y6401815D02*
G01*
X1253236Y6401815D01*
X1268729Y6396736D01*
X1274063Y6391402D01*
X1279144Y6380987D01*
X1279144Y6370573D01*
X1274063Y6360160D01*
X1268729Y6355079D01*
X1253236Y6350000D01*
X1206500Y6350000D01*
X1242821Y6350000D02*
G01*
X1279144Y6292850D01*
X1318768Y6375907D02*
G01*
X1318768Y6380987D01*
X1323847Y6391402D01*
X1329181Y6396736D01*
X1339595Y6401815D01*
X1360170Y6401815D01*
X1370584Y6396736D01*
X1375918Y6391402D01*
X1380997Y6380987D01*
X1380997Y6370573D01*
X1375918Y6360160D01*
X1365504Y6344665D01*
X1313434Y6292850D01*
X1386331Y6292850D01*
X4330700Y5434584D02*
G01*
X4330700Y5543550D01*
X4330700Y5434584D02*
G01*
X4283963Y5434584D01*
X4268470Y5439663D01*
X4263136Y5444997D01*
X4258056Y5455412D01*
X4258056Y5465826D01*
X4263136Y5476239D01*
X4268470Y5481320D01*
X4283963Y5486400D01*
X4330700Y5486400D01*
X4294377Y5486400D02*
G01*
X4258056Y5543550D01*
X4213352Y5434584D02*
G01*
X4156202Y5434584D01*
X4187190Y5476239D01*
X4171695Y5476239D01*
X4161281Y5481320D01*
X4156202Y5486400D01*
X4150868Y5502147D01*
X4150868Y5512562D01*
X4156202Y5528055D01*
X4166615Y5538470D01*
X4182109Y5543550D01*
X4197604Y5543550D01*
X4213352Y5538470D01*
X4218431Y5533389D01*
X4223765Y5522976D01*
X4586429Y5546163D02*
G01*
X4576015Y5535749D01*
X4570935Y5520255D01*
X4570935Y5499427D01*
X4576015Y5483933D01*
X4586429Y5473519D01*
X4596843Y5473519D01*
X4607257Y5478599D01*
X4612591Y5483933D01*
X4617671Y5494347D01*
X4628085Y5525589D01*
X4633165Y5535749D01*
X4638499Y5541083D01*
X4648913Y5546163D01*
X4664407Y5546163D01*
X4674821Y5535749D01*
X4679901Y5520255D01*
X4679901Y5499427D01*
X4674821Y5483933D01*
X4664407Y5473519D01*
X4570935Y5580453D02*
G01*
X4679901Y5606615D01*
X4570935Y5632523D02*
G01*
X4679901Y5606615D01*
X4570935Y5632523D02*
G01*
X4679901Y5658431D01*
X4570935Y5684339D02*
G01*
X4679901Y5658431D01*
X4591763Y5718629D02*
G01*
X4586429Y5729043D01*
X4570935Y5744791D01*
X4679901Y5744791D01*
X3542068Y5560110D02*
G01*
X3464090Y5560110D01*
X3448596Y5555030D01*
X3438182Y5544616D01*
X3433102Y5528868D01*
X3433102Y5518454D01*
X3438182Y5502960D01*
X3448596Y5492546D01*
X3464090Y5487466D01*
X3542068Y5487466D01*
X3521240Y5453176D02*
G01*
X3526574Y5442762D01*
X3542068Y5427014D01*
X3433102Y5427014D01*
X2235172Y5423915D02*
G01*
X2235172Y5345937D01*
X2240252Y5330444D01*
X2250666Y5320029D01*
X2266414Y5314950D01*
X2276828Y5314950D01*
X2292322Y5320029D01*
X2302736Y5330444D01*
X2307816Y5345937D01*
X2307816Y5423915D01*
X2347440Y5398007D02*
G01*
X2347440Y5403087D01*
X2352520Y5413502D01*
X2357854Y5418836D01*
X2368268Y5423915D01*
X2388842Y5423915D01*
X2399256Y5418836D01*
X2404590Y5413502D01*
X2409670Y5403087D01*
X2409670Y5392673D01*
X2404590Y5382260D01*
X2394176Y5366765D01*
X2342106Y5314950D01*
X2415004Y5314950D01*
X1377670Y5501990D02*
G01*
X1299692Y5501990D01*
X1284198Y5496910D01*
X1273784Y5486496D01*
X1268704Y5470748D01*
X1268704Y5460334D01*
X1273784Y5444840D01*
X1284198Y5434426D01*
X1299692Y5429346D01*
X1377670Y5429346D01*
X1362176Y5322158D02*
G01*
X1372590Y5332572D01*
X1377670Y5348320D01*
X1377670Y5368894D01*
X1372590Y5384642D01*
X1362176Y5395056D01*
X1351762Y5395056D01*
X1341348Y5389722D01*
X1336014Y5384642D01*
X1330934Y5374228D01*
X1320520Y5342986D01*
X1315440Y5332572D01*
X1310106Y5327492D01*
X1299692Y5322158D01*
X1284198Y5322158D01*
X1273784Y5332572D01*
X1268704Y5348320D01*
X1268704Y5368894D01*
X1273784Y5384642D01*
X1284198Y5395056D01*
X1377670Y5287868D02*
G01*
X1268704Y5287868D01*
X1377670Y5287868D02*
G01*
X1377670Y5241132D01*
X1372590Y5225638D01*
X1367256Y5220304D01*
X1356842Y5215224D01*
X1346428Y5215224D01*
X1336014Y5220304D01*
X1330934Y5225638D01*
X1325854Y5241132D01*
X1325854Y5287868D02*
G01*
X1325854Y5241132D01*
X1320520Y5225638D01*
X1315440Y5220304D01*
X1305026Y5215224D01*
X1289278Y5215224D01*
X1278864Y5220304D01*
X1273784Y5225638D01*
X1268704Y5241132D01*
X1268704Y5287868D01*
X1356842Y5180934D02*
G01*
X1362176Y5170520D01*
X1377670Y5155026D01*
X1268704Y5155026D01*
X3898900Y5574271D02*
G01*
X3826256Y5683237D01*
X3826256Y5574271D02*
G01*
X3898900Y5683237D01*
X3791965Y5595099D02*
G01*
X3781552Y5589765D01*
X3765804Y5574271D01*
X3765804Y5683237D01*
D11*
X1927781Y4628042D02*
G01*
X1847783Y4628042D01*
X1983826Y4627996D02*
G01*
X2063823Y4627996D01*
X1927781Y4770010D02*
G01*
X1847783Y4770010D01*
X1983826Y4769962D02*
G01*
X2063823Y4769962D01*
X1816808Y4659025D02*
G01*
X1816808Y4739030D01*
X2094801Y4738977D02*
G01*
X2094801Y4658974D01*
X1247218Y4846157D02*
G01*
X1327216Y4846157D01*
X1191173Y4846203D02*
G01*
X1111176Y4846203D01*
X1247218Y4704189D02*
G01*
X1327216Y4704189D01*
X1191173Y4704237D02*
G01*
X1111176Y4704237D01*
X1358191Y4815174D02*
G01*
X1358191Y4735169D01*
X1080198Y4735222D02*
G01*
X1080198Y4815225D01*
X3261281Y6139342D02*
G01*
X3181283Y6139342D01*
X3317326Y6139296D02*
G01*
X3397323Y6139296D01*
X3261281Y6281310D02*
G01*
X3181283Y6281310D01*
X3317326Y6281262D02*
G01*
X3397323Y6281262D01*
X3150308Y6170325D02*
G01*
X3150308Y6250330D01*
X3428301Y6250277D02*
G01*
X3428301Y6170274D01*
X2867581Y6113942D02*
G01*
X2787583Y6113942D01*
X2923626Y6113896D02*
G01*
X3003623Y6113896D01*
X2867581Y6255910D02*
G01*
X2787583Y6255910D01*
X2923626Y6255862D02*
G01*
X3003623Y6255862D01*
X2756608Y6144925D02*
G01*
X2756608Y6224930D01*
X3034601Y6224877D02*
G01*
X3034601Y6144874D01*
X2423081Y4628042D02*
G01*
X2343083Y4628042D01*
X2479126Y4627996D02*
G01*
X2559123Y4627996D01*
X2423081Y4770010D02*
G01*
X2343083Y4770010D01*
X2479126Y4769962D02*
G01*
X2559123Y4769962D01*
X2312108Y4659025D02*
G01*
X2312108Y4739030D01*
X2590101Y4738977D02*
G01*
X2590101Y4658974D01*
X3680381Y6164742D02*
G01*
X3600383Y6164742D01*
X3736426Y6164696D02*
G01*
X3816423Y6164696D01*
X3680381Y6306710D02*
G01*
X3600383Y6306710D01*
X3736426Y6306662D02*
G01*
X3816423Y6306662D01*
X3569408Y6195725D02*
G01*
X3569408Y6275730D01*
X3847401Y6275677D02*
G01*
X3847401Y6195674D01*
X3870881Y5504342D02*
G01*
X3790883Y5504342D01*
X3926926Y5504296D02*
G01*
X4006923Y5504296D01*
X3870881Y5646310D02*
G01*
X3790883Y5646310D01*
X3926926Y5646262D02*
G01*
X4006923Y5646262D01*
X3759908Y5535325D02*
G01*
X3759908Y5615330D01*
X4037901Y5615277D02*
G01*
X4037901Y5535274D01*
X2910918Y4820757D02*
G01*
X2990916Y4820757D01*
X2854873Y4820803D02*
G01*
X2774876Y4820803D01*
X2910918Y4678789D02*
G01*
X2990916Y4678789D01*
X2854873Y4678837D02*
G01*
X2774876Y4678837D01*
X3021891Y4789774D02*
G01*
X3021891Y4709769D01*
X2743898Y4709822D02*
G01*
X2743898Y4789825D01*
X2288618Y6243157D02*
G01*
X2368616Y6243157D01*
X2232573Y6243203D02*
G01*
X2152576Y6243203D01*
X2288618Y6101189D02*
G01*
X2368616Y6101189D01*
X2232573Y6101237D02*
G01*
X2152576Y6101237D01*
X2399591Y6212174D02*
G01*
X2399591Y6132169D01*
X2121598Y6132222D02*
G01*
X2121598Y6212225D01*
X1704436Y5376100D02*
G01*
X2002398Y5376100D01*
X1790700Y5876099D02*
G01*
X1704436Y5876099D01*
X1917700Y5876036D02*
G01*
X2002398Y5876036D01*
X1704436Y5876099D02*
G01*
X1704436Y5376100D01*
X2002398Y5876099D02*
G01*
X2002398Y5376100D01*
D12*
X4644842Y5974748D02*
G01*
X4643846Y5974748D01*
X4610841Y6007752D01*
X4644842Y6042751D02*
G01*
X4644842Y6041753D01*
X4610841Y6007752D01*
X4644842Y6042751D02*
G01*
X4644842Y5974748D01*
X4646846Y6082758D02*
G01*
X4761847Y6082758D01*
X4646846Y5932746D02*
G01*
X4761847Y5932746D01*
X4761847Y6082748D02*
G01*
X4761847Y5934755D01*
X4608845Y5932515D02*
G01*
X4503834Y5932515D01*
X4473839Y5972522D02*
G01*
X4473839Y5962520D01*
X4503834Y5932515D01*
X4473839Y6042517D02*
G01*
X4473839Y5972522D01*
X4473839Y6042517D02*
G01*
X4473839Y6052532D01*
X4503834Y6082527D01*
X4608845Y6082527D02*
G01*
X4503834Y6082527D01*
X4644842Y6007752D02*
G01*
X4610841Y6007752D01*
D10*
X1719021Y6118839D02*
G01*
X1814908Y6118839D01*
X1814908Y6250960D01*
X1719021Y6250960D01*
X1633778Y6118839D02*
G01*
X1537891Y6118839D01*
X1537891Y6250960D01*
X1633778Y6250960D01*
X1249121Y6118839D02*
G01*
X1345008Y6118839D01*
X1345008Y6250960D01*
X1249121Y6250960D01*
X1163878Y6118839D02*
G01*
X1067991Y6118839D01*
X1067991Y6250960D01*
X1163878Y6250960D01*
X4288078Y5717560D02*
G01*
X4192191Y5717560D01*
X4192191Y5585439D01*
X4288078Y5585439D01*
X4373321Y5717560D02*
G01*
X4469208Y5717560D01*
X4469208Y5585439D01*
X4373321Y5585439D01*
D11*
X4810996Y5373631D02*
G01*
X4810996Y5563631D01*
X4901176Y5653803D01*
X5081008Y5653803D01*
X5181089Y5553722D01*
X5181089Y5383791D01*
X5090909Y5293611D01*
X4891016Y5293611D01*
X4810996Y5373631D01*
X4736076Y5601220D02*
G01*
X4825593Y5690725D01*
X4874244Y5728731D02*
G01*
X5107922Y5728731D01*
X5156603Y5690725D02*
G01*
X5246108Y5601220D01*
X4874244Y5218691D02*
G01*
X5107922Y5218691D01*
X5156603Y5256700D02*
G01*
X5246108Y5346199D01*
X4736076Y5346199D02*
G01*
X4825593Y5256700D01*
X5246108Y5346199D02*
G01*
X5246108Y5601220D01*
X4736076Y5346199D02*
G01*
X4736076Y5601220D01*
D13*
X3329797Y5264322D02*
G01*
X3329797Y5204325D01*
X3269800Y5204325D01*
X3269800Y5844331D02*
G01*
X3329797Y5844331D01*
X3329797Y5784334D01*
X2689793Y5784334D02*
G01*
X2689793Y5844331D01*
X2749814Y5844331D01*
X2689793Y5264322D02*
G01*
X2689793Y5204325D01*
X2749814Y5204325D01*
D11*
X2414490Y5029962D02*
G01*
X2134582Y5029962D01*
X2134582Y5029962D02*
G01*
X2134582Y5130037D01*
X2414490Y5130037D01*
X2414490Y5029962D01*
X800092Y5044996D02*
G01*
X952492Y5044996D01*
X558792Y5908596D02*
G01*
X406392Y5908596D01*
X406392Y5044996D01*
X558792Y5044996D01*
X952492Y5908596D02*
G01*
X800092Y5908596D01*
D10*
X4076359Y6060648D02*
G01*
X4076359Y5724926D01*
X3670640Y5724926D01*
X3670640Y6060648D01*
X4076359Y6060648D01*
X4099219Y5917788D02*
G01*
X4099219Y6083508D01*
X3913499Y6083508D01*
D11*
G75*
G01*
X2063819Y4769963D02*
G02*
X2094801Y4738977I0J-30983D01*
G75*
G01*
X2094801Y4658980D02*
G02*
X2063819Y4627997I-30982J0D01*
G75*
G01*
X1847789Y4628043D02*
G02*
X1816809Y4659025I3J30982D01*
G75*
G01*
X1816809Y4739023D02*
G02*
X1847789Y4770011I30983J5D01*
G75*
G01*
X1111181Y4704237D02*
G02*
X1080199Y4735223I0J30983D01*
G75*
G01*
X1080199Y4815220D02*
G02*
X1111181Y4846203I30982J0D01*
G75*
G01*
X1327211Y4846157D02*
G02*
X1358191Y4815175I-3J-30982D01*
G75*
G01*
X1358191Y4735177D02*
G02*
X1327211Y4704189I-30983J-5D01*
G75*
G01*
X3397319Y6281263D02*
G02*
X3428301Y6250277I0J-30983D01*
G75*
G01*
X3428301Y6170280D02*
G02*
X3397319Y6139297I-30982J0D01*
G75*
G01*
X3181289Y6139343D02*
G02*
X3150309Y6170325I3J30982D01*
G75*
G01*
X3150309Y6250323D02*
G02*
X3181289Y6281311I30983J5D01*
G75*
G01*
X3003619Y6255863D02*
G02*
X3034601Y6224877I0J-30983D01*
G75*
G01*
X3034601Y6144880D02*
G02*
X3003619Y6113897I-30982J0D01*
G75*
G01*
X2787589Y6113943D02*
G02*
X2756609Y6144925I3J30982D01*
G75*
G01*
X2756609Y6224923D02*
G02*
X2787589Y6255911I30983J5D01*
G75*
G01*
X2559119Y4769963D02*
G02*
X2590101Y4738977I0J-30983D01*
G75*
G01*
X2590101Y4658980D02*
G02*
X2559119Y4627997I-30982J0D01*
G75*
G01*
X2343089Y4628043D02*
G02*
X2312109Y4659025I3J30982D01*
G75*
G01*
X2312109Y4739023D02*
G02*
X2343089Y4770011I30983J5D01*
G75*
G01*
X3816419Y6306663D02*
G02*
X3847401Y6275677I0J-30983D01*
G75*
G01*
X3847401Y6195680D02*
G02*
X3816419Y6164697I-30982J0D01*
G75*
G01*
X3600389Y6164743D02*
G02*
X3569409Y6195725I3J30982D01*
G75*
G01*
X3569409Y6275723D02*
G02*
X3600389Y6306711I30983J5D01*
G75*
G01*
X4006919Y5646263D02*
G02*
X4037901Y5615277I0J-30983D01*
G75*
G01*
X4037901Y5535280D02*
G02*
X4006919Y5504297I-30982J0D01*
G75*
G01*
X3790889Y5504343D02*
G02*
X3759909Y5535325I3J30982D01*
G75*
G01*
X3759909Y5615323D02*
G02*
X3790889Y5646311I30983J5D01*
G75*
G01*
X2774881Y4678837D02*
G02*
X2743899Y4709823I0J30983D01*
G75*
G01*
X2743899Y4789820D02*
G02*
X2774881Y4820803I30982J0D01*
G75*
G01*
X2990911Y4820757D02*
G02*
X3021891Y4789775I-3J-30982D01*
G75*
G01*
X3021891Y4709777D02*
G02*
X2990911Y4678789I-30983J-5D01*
G75*
G01*
X2152581Y6101237D02*
G02*
X2121599Y6132223I0J30983D01*
G75*
G01*
X2121599Y6212220D02*
G02*
X2152581Y6243203I30982J0D01*
G75*
G01*
X2368611Y6243157D02*
G02*
X2399591Y6212175I-3J-30982D01*
G75*
G01*
X2399591Y6132177D02*
G02*
X2368611Y6101189I-30983J-5D01*
G75*
G01*
X1790700Y5876100D02*
G03*
X1917700Y5876036I63500J-32D01*
D14*
G75*
G01*
X3309884Y5879330D02*
G03*
X3309630Y5879330I-127J15001D01*
D15*
G75*
G01*
X2095343Y4927854D02*
G02*
X2095597Y4927854I127J12445D01*
D16*
G75*
G01
X4165600Y4762500D02*
G03X4165600Y4762500I-114300J0D01*
G75*
G01
X3619500Y4749800D02*
G03X3619500Y4749800I-114300J0D01*
G75*
G01
X4610100Y4762500D02*
G03X4610100Y4762500I-114300J0D01*
G75*
G01
X5016500Y4775200D02*
G03X5016500Y4775200I-114300J0D01*
G75*
G01
X5321300Y4787900D02*
G03X5321300Y4787900I-114300J0D01*
D14*
G75*
G01
X1767611Y5816600D02*
G03X1767611Y5816600I-15011J0D01*
D11*
G75*
G01
X5118557Y5473522D02*
G03X5118557Y5473522I-127508J0D01*
M02*
