G04 Layer: TopPasteMaskLayer*
G04 EasyEDA v6.5.51, 2026-01-01 11:10:02*
G04 c2e0b91a54b643c29b893d635b68bbd8,b0fcb86846164242a958a805a75853bb,10*
G04 Gerber Generator version 0.2*
G04 Scale: 100 percent, Rotated: No, Reflected: No *
G04 Dimensions in millimeters *
G04 leading zeros omitted , absolute positions ,4 integer and 5 decimal *
%FSLAX45Y45*%
%MOMM*%

%AMMACRO1*21,1,$1,$2,0,0,$3*%
%ADD10R,0.8000X0.9000*%
%ADD11O,1.864995X0.629996*%
%ADD12R,0.8000X0.8000*%
%ADD13R,0.7500X1.0000*%
%ADD14MACRO1,0.6223X1.1049X0.0000*%
%ADD15MACRO1,1.2X1.4X-90.0000*%
%ADD16C,0.0116*%
%ADD17R,1.4000X1.2000*%
%ADD18MACRO1,1.2X1.4X90.0000*%

%LPD*%
G36*
X1715922Y6229908D02*
G01*
X1710893Y6224879D01*
X1710893Y6202121D01*
X1747926Y6202121D01*
X1747926Y6169101D01*
X1710893Y6169101D01*
X1710893Y6144920D01*
X1715922Y6139891D01*
X1795881Y6139891D01*
X1800910Y6144920D01*
X1800910Y6224879D01*
X1795881Y6229908D01*
G37*
G36*
X1556918Y6229908D02*
G01*
X1551889Y6224879D01*
X1551889Y6144920D01*
X1556918Y6139891D01*
X1636877Y6139891D01*
X1641906Y6144920D01*
X1641906Y6167678D01*
X1604873Y6167678D01*
X1604873Y6200698D01*
X1641906Y6200698D01*
X1641906Y6224879D01*
X1636877Y6229908D01*
G37*
G36*
X1246022Y6229908D02*
G01*
X1240993Y6224879D01*
X1240993Y6202121D01*
X1278026Y6202121D01*
X1278026Y6169101D01*
X1240993Y6169101D01*
X1240993Y6144920D01*
X1246022Y6139891D01*
X1325981Y6139891D01*
X1331010Y6144920D01*
X1331010Y6224879D01*
X1325981Y6229908D01*
G37*
G36*
X1087018Y6229908D02*
G01*
X1081989Y6224879D01*
X1081989Y6144920D01*
X1087018Y6139891D01*
X1166977Y6139891D01*
X1172006Y6144920D01*
X1172006Y6167678D01*
X1134973Y6167678D01*
X1134973Y6200698D01*
X1172006Y6200698D01*
X1172006Y6224879D01*
X1166977Y6229908D01*
G37*
G36*
X4211218Y5696508D02*
G01*
X4206189Y5691479D01*
X4206189Y5611520D01*
X4211218Y5606491D01*
X4291177Y5606491D01*
X4296206Y5611520D01*
X4296206Y5634278D01*
X4259224Y5634278D01*
X4259224Y5667298D01*
X4296206Y5667298D01*
X4296206Y5691479D01*
X4291177Y5696508D01*
G37*
G36*
X4370222Y5696508D02*
G01*
X4365193Y5691479D01*
X4365193Y5668721D01*
X4402175Y5668721D01*
X4402175Y5635701D01*
X4365193Y5635701D01*
X4365193Y5611520D01*
X4370222Y5606491D01*
X4450181Y5606491D01*
X4455210Y5611520D01*
X4455210Y5691479D01*
X4450181Y5696508D01*
G37*
G36*
X3273501Y5754370D02*
G01*
X3270910Y5754014D01*
X3269081Y5753354D01*
X3266440Y5751423D01*
X3265576Y5750458D01*
X3264560Y5748782D01*
X3263849Y5746953D01*
X3263595Y5745683D01*
X3263595Y5743041D01*
X3263849Y5741771D01*
X3264560Y5739942D01*
X3265576Y5738266D01*
X3267964Y5736031D01*
X3269081Y5735370D01*
X3272231Y5734456D01*
X3354832Y5734456D01*
X3357372Y5735116D01*
X3360115Y5736844D01*
X3362198Y5739384D01*
X3363010Y5741162D01*
X3363518Y5743702D01*
X3363163Y5746953D01*
X3362502Y5748782D01*
X3361029Y5750966D01*
X3359099Y5752693D01*
X3356711Y5753811D01*
X3355492Y5754166D01*
X3353511Y5754370D01*
G37*
G36*
X3272891Y5514390D02*
G01*
X3270300Y5513882D01*
X3267456Y5512358D01*
X3265576Y5510479D01*
X3264052Y5507634D01*
X3263696Y5506364D01*
X3263493Y5504383D01*
X3263849Y5501843D01*
X3264560Y5499963D01*
X3265982Y5497830D01*
X3267964Y5496102D01*
X3269081Y5495442D01*
X3270910Y5494731D01*
X3272231Y5494477D01*
X3354171Y5494426D01*
X3356711Y5494934D01*
X3359099Y5496102D01*
X3361029Y5497830D01*
X3362198Y5499404D01*
X3363010Y5501182D01*
X3363315Y5502452D01*
X3363518Y5505043D01*
X3363163Y5506974D01*
X3362502Y5508853D01*
X3360572Y5511495D01*
X3358540Y5513070D01*
X3356101Y5514086D01*
X3354832Y5514340D01*
G37*
G36*
X3273501Y5634380D02*
G01*
X3270910Y5634024D01*
X3269081Y5633364D01*
X3266440Y5631434D01*
X3265576Y5630468D01*
X3264560Y5628792D01*
X3263849Y5626963D01*
X3263595Y5625693D01*
X3263595Y5623052D01*
X3263849Y5621782D01*
X3264560Y5619953D01*
X3265576Y5618276D01*
X3267964Y5616041D01*
X3269081Y5615381D01*
X3272231Y5614466D01*
X3354832Y5614466D01*
X3357372Y5615127D01*
X3358540Y5615686D01*
X3360115Y5616854D01*
X3362198Y5619394D01*
X3363010Y5621172D01*
X3363518Y5623712D01*
X3363163Y5626963D01*
X3362502Y5628792D01*
X3361029Y5630976D01*
X3359099Y5632704D01*
X3356711Y5633821D01*
X3355492Y5634177D01*
X3353511Y5634380D01*
G37*
G36*
X3272891Y5394350D02*
G01*
X3270300Y5393842D01*
X3267456Y5392318D01*
X3265576Y5390438D01*
X3264052Y5387594D01*
X3263544Y5385003D01*
X3263595Y5383072D01*
X3263849Y5381802D01*
X3264560Y5379923D01*
X3265982Y5377789D01*
X3267964Y5376062D01*
X3269081Y5375402D01*
X3270910Y5374690D01*
X3272231Y5374436D01*
X3354171Y5374386D01*
X3356711Y5374894D01*
X3359099Y5376062D01*
X3361029Y5377789D01*
X3362198Y5379364D01*
X3363010Y5381142D01*
X3363315Y5382412D01*
X3363518Y5385003D01*
X3363163Y5386933D01*
X3362502Y5388813D01*
X3360572Y5391454D01*
X3358540Y5393029D01*
X3356101Y5394045D01*
X3354832Y5394299D01*
G37*
G36*
X3272891Y5674360D02*
G01*
X3270300Y5673852D01*
X3267456Y5672328D01*
X3265576Y5670448D01*
X3264052Y5667603D01*
X3263544Y5665012D01*
X3263595Y5663082D01*
X3263849Y5661812D01*
X3264560Y5659932D01*
X3265982Y5657799D01*
X3267964Y5656072D01*
X3269081Y5655411D01*
X3270910Y5654700D01*
X3272231Y5654446D01*
X3354171Y5654395D01*
X3356711Y5654903D01*
X3359099Y5656072D01*
X3361029Y5657799D01*
X3362198Y5659374D01*
X3363010Y5661152D01*
X3363315Y5662422D01*
X3363518Y5665012D01*
X3363163Y5666943D01*
X3362502Y5668822D01*
X3360572Y5671464D01*
X3358540Y5673039D01*
X3356101Y5674055D01*
X3354832Y5674309D01*
G37*
G36*
X3272891Y5434380D02*
G01*
X3270300Y5433872D01*
X3267456Y5432348D01*
X3265576Y5430469D01*
X3264052Y5427624D01*
X3263544Y5425033D01*
X3263595Y5423103D01*
X3263849Y5421833D01*
X3264560Y5419953D01*
X3265982Y5417820D01*
X3267964Y5416092D01*
X3269081Y5415432D01*
X3270910Y5414721D01*
X3272231Y5414467D01*
X3354171Y5414416D01*
X3356711Y5414924D01*
X3359099Y5416092D01*
X3361029Y5417820D01*
X3362198Y5419394D01*
X3363010Y5421172D01*
X3363315Y5422442D01*
X3363518Y5425033D01*
X3363163Y5426964D01*
X3362502Y5428843D01*
X3360572Y5431485D01*
X3358540Y5433060D01*
X3356101Y5434076D01*
X3354832Y5434330D01*
G37*
G36*
X3273501Y5554370D02*
G01*
X3270910Y5554014D01*
X3269081Y5553354D01*
X3266440Y5551424D01*
X3265576Y5550458D01*
X3264560Y5548782D01*
X3263849Y5546953D01*
X3263595Y5545683D01*
X3263595Y5543042D01*
X3263849Y5541772D01*
X3264560Y5539943D01*
X3265576Y5538266D01*
X3267964Y5536031D01*
X3269081Y5535371D01*
X3272231Y5534456D01*
X3354832Y5534456D01*
X3357372Y5535117D01*
X3358540Y5535676D01*
X3360115Y5536844D01*
X3362198Y5539384D01*
X3363010Y5541162D01*
X3363518Y5543702D01*
X3363163Y5546953D01*
X3362502Y5548782D01*
X3361029Y5550966D01*
X3359099Y5552694D01*
X3356711Y5553811D01*
X3355492Y5554167D01*
X3353511Y5554370D01*
G37*
G36*
X3273501Y5314391D02*
G01*
X3270910Y5314035D01*
X3269081Y5313375D01*
X3266440Y5311444D01*
X3265576Y5310479D01*
X3264560Y5308803D01*
X3263849Y5306974D01*
X3263595Y5305704D01*
X3263595Y5303062D01*
X3263849Y5301792D01*
X3264560Y5299964D01*
X3265576Y5298287D01*
X3267964Y5296052D01*
X3269081Y5295392D01*
X3272231Y5294477D01*
X3354832Y5294477D01*
X3357372Y5295138D01*
X3358540Y5295696D01*
X3360115Y5296865D01*
X3362198Y5299405D01*
X3363010Y5301183D01*
X3363518Y5303723D01*
X3363163Y5306974D01*
X3362502Y5308803D01*
X3361029Y5310987D01*
X3359099Y5312714D01*
X3356711Y5313832D01*
X3355492Y5314188D01*
X3353511Y5314391D01*
G37*
G36*
X3273501Y5714390D02*
G01*
X3270910Y5714034D01*
X3269081Y5713374D01*
X3266440Y5711444D01*
X3265576Y5710478D01*
X3264560Y5708802D01*
X3263849Y5706973D01*
X3263595Y5705703D01*
X3263595Y5703062D01*
X3263849Y5701792D01*
X3264560Y5699963D01*
X3265576Y5698286D01*
X3267964Y5696051D01*
X3269081Y5695391D01*
X3272231Y5694476D01*
X3354832Y5694476D01*
X3357372Y5695137D01*
X3360115Y5696864D01*
X3362198Y5699404D01*
X3363010Y5701182D01*
X3363518Y5703722D01*
X3363163Y5706973D01*
X3362502Y5708802D01*
X3361029Y5710986D01*
X3359099Y5712714D01*
X3356711Y5713831D01*
X3355492Y5714187D01*
X3353511Y5714390D01*
G37*
G36*
X3272891Y5474360D02*
G01*
X3270300Y5473852D01*
X3267456Y5472328D01*
X3265576Y5470448D01*
X3264052Y5467604D01*
X3263696Y5466334D01*
X3263493Y5464352D01*
X3263849Y5461812D01*
X3264560Y5459933D01*
X3265982Y5457799D01*
X3267964Y5456072D01*
X3269081Y5455412D01*
X3270910Y5454700D01*
X3272231Y5454446D01*
X3354171Y5454396D01*
X3356711Y5454904D01*
X3359099Y5456072D01*
X3361029Y5457799D01*
X3362198Y5459374D01*
X3363010Y5461152D01*
X3363315Y5462422D01*
X3363518Y5465013D01*
X3363163Y5466943D01*
X3362502Y5468823D01*
X3360572Y5471464D01*
X3358540Y5473039D01*
X3356101Y5474055D01*
X3354832Y5474309D01*
G37*
G36*
X3272891Y5594350D02*
G01*
X3270300Y5593842D01*
X3267456Y5592318D01*
X3265576Y5590438D01*
X3264052Y5587593D01*
X3263696Y5586323D01*
X3263493Y5584342D01*
X3263849Y5581802D01*
X3264560Y5579922D01*
X3265982Y5577789D01*
X3267964Y5576062D01*
X3269081Y5575401D01*
X3270910Y5574690D01*
X3272231Y5574436D01*
X3354171Y5574385D01*
X3356711Y5574893D01*
X3359099Y5576062D01*
X3361029Y5577789D01*
X3362198Y5579364D01*
X3363010Y5581142D01*
X3363315Y5582412D01*
X3363518Y5585002D01*
X3363163Y5586933D01*
X3362502Y5588812D01*
X3360572Y5591454D01*
X3358540Y5593029D01*
X3356101Y5594045D01*
X3354832Y5594299D01*
G37*
G36*
X3272891Y5354370D02*
G01*
X3270300Y5353862D01*
X3267456Y5352338D01*
X3265576Y5350459D01*
X3264052Y5347614D01*
X3263544Y5345023D01*
X3263595Y5343093D01*
X3263849Y5341823D01*
X3264560Y5339943D01*
X3265982Y5337810D01*
X3267964Y5336082D01*
X3269081Y5335422D01*
X3270910Y5334711D01*
X3272231Y5334457D01*
X3354171Y5334406D01*
X3356711Y5334914D01*
X3359099Y5336082D01*
X3361029Y5337810D01*
X3362198Y5339384D01*
X3363010Y5341162D01*
X3363315Y5342432D01*
X3363518Y5345023D01*
X3363163Y5346954D01*
X3362502Y5348833D01*
X3360572Y5351475D01*
X3358540Y5353050D01*
X3356101Y5354066D01*
X3354832Y5354320D01*
G37*
G36*
X2799892Y5734507D02*
G01*
X2799892Y5314492D01*
X3219907Y5314492D01*
X3219907Y5734507D01*
G37*
G36*
X3229762Y5878118D02*
G01*
X3227171Y5877763D01*
X3225342Y5877052D01*
X3223666Y5876036D01*
X3222244Y5874715D01*
X3220516Y5871921D01*
X3219958Y5870041D01*
X3219754Y5868111D01*
X3219856Y5786780D01*
X3220110Y5785510D01*
X3220821Y5783681D01*
X3221837Y5782005D01*
X3223158Y5780582D01*
X3224225Y5779770D01*
X3225952Y5778855D01*
X3227832Y5778296D01*
X3231083Y5778195D01*
X3233623Y5778855D01*
X3236366Y5780582D01*
X3238449Y5783122D01*
X3239262Y5784900D01*
X3239770Y5787440D01*
X3239668Y5869432D01*
X3238754Y5872530D01*
X3237280Y5874715D01*
X3235350Y5876442D01*
X3233013Y5877560D01*
X3231743Y5877915D01*
G37*
G36*
X3229762Y5270906D02*
G01*
X3227171Y5270550D01*
X3225342Y5269839D01*
X3223666Y5268823D01*
X3222244Y5267502D01*
X3220516Y5264708D01*
X3219958Y5262829D01*
X3219754Y5260898D01*
X3219856Y5179568D01*
X3220110Y5178298D01*
X3220821Y5176469D01*
X3221837Y5174792D01*
X3223158Y5173370D01*
X3224225Y5172557D01*
X3225952Y5171643D01*
X3227832Y5171084D01*
X3231083Y5170982D01*
X3233623Y5171643D01*
X3236366Y5173370D01*
X3238449Y5175910D01*
X3239262Y5177688D01*
X3239770Y5180228D01*
X3239668Y5262219D01*
X3238754Y5265318D01*
X3237280Y5267502D01*
X3235350Y5269230D01*
X3233013Y5270347D01*
X3231743Y5270703D01*
G37*
G36*
X3189732Y5878118D02*
G01*
X3187141Y5877763D01*
X3185312Y5877052D01*
X3183636Y5876036D01*
X3182213Y5874715D01*
X3180486Y5871921D01*
X3179927Y5870041D01*
X3179724Y5868111D01*
X3179826Y5786780D01*
X3180080Y5785510D01*
X3180791Y5783681D01*
X3181807Y5782005D01*
X3183128Y5780582D01*
X3184194Y5779770D01*
X3185922Y5778855D01*
X3187801Y5778296D01*
X3191052Y5778195D01*
X3193592Y5778855D01*
X3196336Y5780582D01*
X3198418Y5783122D01*
X3199231Y5784900D01*
X3199739Y5787440D01*
X3199638Y5869432D01*
X3198723Y5872530D01*
X3197250Y5874715D01*
X3195320Y5876442D01*
X3192983Y5877560D01*
X3191713Y5877915D01*
G37*
G36*
X3189732Y5270906D02*
G01*
X3187141Y5270550D01*
X3185312Y5269839D01*
X3183636Y5268823D01*
X3182213Y5267502D01*
X3180486Y5264708D01*
X3179927Y5262829D01*
X3179724Y5260898D01*
X3179826Y5179568D01*
X3180080Y5178298D01*
X3180791Y5176469D01*
X3181807Y5174792D01*
X3183128Y5173370D01*
X3184194Y5172557D01*
X3185922Y5171643D01*
X3187801Y5171084D01*
X3191052Y5170982D01*
X3193592Y5171643D01*
X3196336Y5173370D01*
X3198418Y5175910D01*
X3199231Y5177688D01*
X3199739Y5180228D01*
X3199638Y5262219D01*
X3198723Y5265318D01*
X3197250Y5267502D01*
X3195320Y5269230D01*
X3192983Y5270347D01*
X3191713Y5270703D01*
G37*
G36*
X3149752Y5878118D02*
G01*
X3147161Y5877763D01*
X3145332Y5877052D01*
X3143656Y5876036D01*
X3142234Y5874715D01*
X3140506Y5871921D01*
X3139948Y5870041D01*
X3139744Y5868111D01*
X3139846Y5786780D01*
X3140100Y5785510D01*
X3140811Y5783681D01*
X3141827Y5782005D01*
X3143148Y5780582D01*
X3144215Y5779770D01*
X3145942Y5778855D01*
X3147822Y5778296D01*
X3151073Y5778195D01*
X3153613Y5778855D01*
X3156356Y5780582D01*
X3158439Y5783122D01*
X3159252Y5784900D01*
X3159760Y5787440D01*
X3159658Y5869432D01*
X3158744Y5872530D01*
X3157270Y5874715D01*
X3155340Y5876442D01*
X3153003Y5877560D01*
X3151733Y5877915D01*
G37*
G36*
X3149752Y5270906D02*
G01*
X3147161Y5270550D01*
X3145332Y5269839D01*
X3143656Y5268823D01*
X3142234Y5267502D01*
X3140506Y5264708D01*
X3139948Y5262829D01*
X3139744Y5260898D01*
X3139846Y5179568D01*
X3140100Y5178298D01*
X3140811Y5176469D01*
X3141827Y5174792D01*
X3143148Y5173370D01*
X3144215Y5172557D01*
X3145942Y5171643D01*
X3147822Y5171084D01*
X3151073Y5170982D01*
X3153613Y5171643D01*
X3156356Y5173370D01*
X3158439Y5175910D01*
X3159252Y5177688D01*
X3159760Y5180228D01*
X3159658Y5262219D01*
X3158744Y5265318D01*
X3157270Y5267502D01*
X3155340Y5269230D01*
X3153003Y5270347D01*
X3151733Y5270703D01*
G37*
G36*
X3109772Y5270906D02*
G01*
X3107182Y5270550D01*
X3105353Y5269839D01*
X3103676Y5268823D01*
X3102254Y5267502D01*
X3100527Y5264708D01*
X3099968Y5262829D01*
X3099765Y5260898D01*
X3099866Y5179568D01*
X3100120Y5178298D01*
X3100832Y5176469D01*
X3101848Y5174792D01*
X3103168Y5173370D01*
X3104235Y5172557D01*
X3105962Y5171643D01*
X3107842Y5171084D01*
X3111093Y5170982D01*
X3113633Y5171643D01*
X3116376Y5173370D01*
X3118459Y5175910D01*
X3119272Y5177688D01*
X3119780Y5180228D01*
X3119678Y5262219D01*
X3118764Y5265318D01*
X3117291Y5267502D01*
X3115360Y5269230D01*
X3113024Y5270347D01*
X3111754Y5270703D01*
G37*
G36*
X3109722Y5878118D02*
G01*
X3107131Y5877763D01*
X3105302Y5877052D01*
X3103626Y5876036D01*
X3102203Y5874715D01*
X3100476Y5871921D01*
X3099917Y5870041D01*
X3099714Y5868111D01*
X3099816Y5786780D01*
X3100070Y5785510D01*
X3100781Y5783681D01*
X3101797Y5782005D01*
X3103118Y5780582D01*
X3104184Y5779770D01*
X3105912Y5778855D01*
X3107791Y5778296D01*
X3111042Y5778195D01*
X3113582Y5778855D01*
X3116326Y5780582D01*
X3118408Y5783122D01*
X3119221Y5784900D01*
X3119729Y5787440D01*
X3119628Y5869432D01*
X3118713Y5872530D01*
X3117240Y5874715D01*
X3115310Y5876442D01*
X3112973Y5877560D01*
X3111703Y5877915D01*
G37*
G36*
X3069793Y5878118D02*
G01*
X3067812Y5877915D01*
X3064205Y5876442D01*
X3062274Y5874715D01*
X3060801Y5872530D01*
X3059887Y5869432D01*
X3059785Y5787440D01*
X3060293Y5784900D01*
X3061106Y5783122D01*
X3063189Y5780582D01*
X3065932Y5778855D01*
X3068472Y5778195D01*
X3071723Y5778296D01*
X3073603Y5778855D01*
X3075330Y5779770D01*
X3076397Y5780582D01*
X3077718Y5782005D01*
X3078734Y5783681D01*
X3079445Y5785510D01*
X3079699Y5786780D01*
X3079800Y5868111D01*
X3079597Y5870041D01*
X3079038Y5871921D01*
X3077311Y5874715D01*
X3075889Y5876036D01*
X3074212Y5877052D01*
X3072384Y5877763D01*
G37*
G36*
X3069793Y5270906D02*
G01*
X3067812Y5270703D01*
X3064205Y5269230D01*
X3062274Y5267502D01*
X3060801Y5265318D01*
X3059887Y5262219D01*
X3059785Y5180228D01*
X3060293Y5177688D01*
X3061106Y5175910D01*
X3063189Y5173370D01*
X3065932Y5171643D01*
X3068472Y5170982D01*
X3071723Y5171084D01*
X3073603Y5171643D01*
X3075330Y5172557D01*
X3076397Y5173370D01*
X3077718Y5174792D01*
X3078734Y5176469D01*
X3079445Y5178298D01*
X3079699Y5179568D01*
X3079800Y5260898D01*
X3079597Y5262829D01*
X3079038Y5264708D01*
X3077311Y5267502D01*
X3075889Y5268823D01*
X3074212Y5269839D01*
X3072384Y5270550D01*
G37*
G36*
X3029762Y5270906D02*
G01*
X3027172Y5270550D01*
X3025343Y5269839D01*
X3023666Y5268823D01*
X3022244Y5267502D01*
X3020517Y5264708D01*
X3019958Y5262829D01*
X3019755Y5260898D01*
X3019856Y5179568D01*
X3020110Y5178298D01*
X3020822Y5176469D01*
X3021838Y5174792D01*
X3023158Y5173370D01*
X3024225Y5172557D01*
X3025952Y5171643D01*
X3027832Y5171084D01*
X3031083Y5170982D01*
X3033623Y5171643D01*
X3036366Y5173370D01*
X3038449Y5175910D01*
X3039262Y5177688D01*
X3039770Y5180228D01*
X3039668Y5262219D01*
X3038754Y5265318D01*
X3037281Y5267502D01*
X3035350Y5269230D01*
X3033014Y5270347D01*
X3031744Y5270703D01*
G37*
G36*
X3029712Y5878118D02*
G01*
X3027121Y5877763D01*
X3025292Y5877052D01*
X3023616Y5876036D01*
X3022193Y5874715D01*
X3020466Y5871921D01*
X3019907Y5870041D01*
X3019704Y5868111D01*
X3019806Y5786780D01*
X3020060Y5785510D01*
X3020771Y5783681D01*
X3021787Y5782005D01*
X3023108Y5780582D01*
X3024174Y5779770D01*
X3025902Y5778855D01*
X3027781Y5778296D01*
X3031032Y5778195D01*
X3033572Y5778855D01*
X3036316Y5780582D01*
X3038398Y5783122D01*
X3039211Y5784900D01*
X3039719Y5787440D01*
X3039618Y5869432D01*
X3038703Y5872530D01*
X3037230Y5874715D01*
X3035300Y5876442D01*
X3032963Y5877560D01*
X3031693Y5877915D01*
G37*
G36*
X2989783Y5878118D02*
G01*
X2987802Y5877915D01*
X2984195Y5876442D01*
X2982264Y5874715D01*
X2980791Y5872530D01*
X2979877Y5869432D01*
X2979775Y5787440D01*
X2980283Y5784900D01*
X2981096Y5783122D01*
X2983179Y5780582D01*
X2985922Y5778855D01*
X2988462Y5778195D01*
X2991713Y5778296D01*
X2993593Y5778855D01*
X2995320Y5779770D01*
X2996387Y5780582D01*
X2997708Y5782005D01*
X2998724Y5783681D01*
X2999435Y5785510D01*
X2999689Y5786780D01*
X2999790Y5868111D01*
X2999587Y5870041D01*
X2999028Y5871921D01*
X2997301Y5874715D01*
X2995879Y5876036D01*
X2994202Y5877052D01*
X2992374Y5877763D01*
G37*
G36*
X2989783Y5270906D02*
G01*
X2987802Y5270703D01*
X2984195Y5269230D01*
X2982264Y5267502D01*
X2980791Y5265318D01*
X2979877Y5262219D01*
X2979775Y5180228D01*
X2980283Y5177688D01*
X2981096Y5175910D01*
X2983179Y5173370D01*
X2985922Y5171643D01*
X2988462Y5170982D01*
X2991713Y5171084D01*
X2993593Y5171643D01*
X2995320Y5172557D01*
X2996387Y5173370D01*
X2997708Y5174792D01*
X2998724Y5176469D01*
X2999435Y5178298D01*
X2999689Y5179568D01*
X2999790Y5260898D01*
X2999587Y5262829D01*
X2999028Y5264708D01*
X2997301Y5267502D01*
X2995879Y5268823D01*
X2994202Y5269839D01*
X2992374Y5270550D01*
G37*
G36*
X2949752Y5878118D02*
G01*
X2947162Y5877763D01*
X2945333Y5877052D01*
X2943656Y5876036D01*
X2942234Y5874715D01*
X2940507Y5871921D01*
X2939948Y5870041D01*
X2939745Y5868111D01*
X2939846Y5786780D01*
X2940100Y5785510D01*
X2940812Y5783681D01*
X2941828Y5782005D01*
X2943148Y5780582D01*
X2944215Y5779770D01*
X2945942Y5778855D01*
X2947822Y5778296D01*
X2951073Y5778195D01*
X2953613Y5778855D01*
X2956356Y5780582D01*
X2958439Y5783122D01*
X2959252Y5784900D01*
X2959760Y5787440D01*
X2959658Y5869432D01*
X2958744Y5872530D01*
X2957271Y5874715D01*
X2955340Y5876442D01*
X2953004Y5877560D01*
X2951734Y5877915D01*
G37*
G36*
X2949752Y5270906D02*
G01*
X2947162Y5270550D01*
X2945333Y5269839D01*
X2943656Y5268823D01*
X2942234Y5267502D01*
X2940507Y5264708D01*
X2939948Y5262829D01*
X2939745Y5260898D01*
X2939846Y5179568D01*
X2940100Y5178298D01*
X2940812Y5176469D01*
X2941828Y5174792D01*
X2943148Y5173370D01*
X2944215Y5172557D01*
X2945942Y5171643D01*
X2947822Y5171084D01*
X2951073Y5170982D01*
X2953613Y5171643D01*
X2956356Y5173370D01*
X2958439Y5175910D01*
X2959252Y5177688D01*
X2959760Y5180228D01*
X2959658Y5262219D01*
X2958744Y5265318D01*
X2957271Y5267502D01*
X2955340Y5269230D01*
X2953004Y5270347D01*
X2951734Y5270703D01*
G37*
G36*
X2909773Y5878118D02*
G01*
X2907182Y5877763D01*
X2905353Y5877052D01*
X2903677Y5876036D01*
X2902254Y5874715D01*
X2900527Y5871921D01*
X2899968Y5870041D01*
X2899765Y5868111D01*
X2899867Y5786780D01*
X2900121Y5785510D01*
X2900832Y5783681D01*
X2901848Y5782005D01*
X2903169Y5780582D01*
X2904236Y5779770D01*
X2905963Y5778855D01*
X2907842Y5778296D01*
X2911094Y5778195D01*
X2913634Y5778855D01*
X2916377Y5780582D01*
X2918460Y5783122D01*
X2919272Y5784900D01*
X2919780Y5787440D01*
X2919679Y5869432D01*
X2918764Y5872530D01*
X2917291Y5874715D01*
X2915361Y5876442D01*
X2913024Y5877560D01*
X2911754Y5877915D01*
G37*
G36*
X2909773Y5270906D02*
G01*
X2907182Y5270550D01*
X2905353Y5269839D01*
X2903677Y5268823D01*
X2902254Y5267502D01*
X2900527Y5264708D01*
X2899968Y5262829D01*
X2899765Y5260898D01*
X2899867Y5179568D01*
X2900121Y5178298D01*
X2900832Y5176469D01*
X2901848Y5174792D01*
X2903169Y5173370D01*
X2904236Y5172557D01*
X2905963Y5171643D01*
X2907842Y5171084D01*
X2911094Y5170982D01*
X2913634Y5171643D01*
X2916377Y5173370D01*
X2918460Y5175910D01*
X2919272Y5177688D01*
X2919780Y5180228D01*
X2919679Y5262219D01*
X2918764Y5265318D01*
X2917291Y5267502D01*
X2915361Y5269230D01*
X2913024Y5270347D01*
X2911754Y5270703D01*
G37*
G36*
X2869793Y5878118D02*
G01*
X2867812Y5877915D01*
X2864205Y5876442D01*
X2862275Y5874715D01*
X2860802Y5872530D01*
X2859887Y5869432D01*
X2859786Y5787440D01*
X2860294Y5784900D01*
X2861106Y5783122D01*
X2863189Y5780582D01*
X2865932Y5778855D01*
X2868472Y5778195D01*
X2871724Y5778296D01*
X2873603Y5778855D01*
X2875330Y5779770D01*
X2876397Y5780582D01*
X2877718Y5782005D01*
X2878734Y5783681D01*
X2879445Y5785510D01*
X2879699Y5786780D01*
X2879801Y5868111D01*
X2879598Y5870041D01*
X2879039Y5871921D01*
X2877312Y5874715D01*
X2875889Y5876036D01*
X2874213Y5877052D01*
X2872384Y5877763D01*
G37*
G36*
X2869793Y5270906D02*
G01*
X2867812Y5270703D01*
X2864205Y5269230D01*
X2862275Y5267502D01*
X2860802Y5265318D01*
X2859887Y5262219D01*
X2859786Y5180228D01*
X2860294Y5177688D01*
X2861106Y5175910D01*
X2863189Y5173370D01*
X2865932Y5171643D01*
X2868472Y5170982D01*
X2871724Y5171084D01*
X2873603Y5171643D01*
X2875330Y5172557D01*
X2876397Y5173370D01*
X2877718Y5174792D01*
X2878734Y5176469D01*
X2879445Y5178298D01*
X2879699Y5179568D01*
X2879801Y5260898D01*
X2879598Y5262829D01*
X2879039Y5264708D01*
X2877312Y5267502D01*
X2875889Y5268823D01*
X2874213Y5269839D01*
X2872384Y5270550D01*
G37*
G36*
X2829763Y5878118D02*
G01*
X2827172Y5877763D01*
X2825343Y5877052D01*
X2823667Y5876036D01*
X2822244Y5874715D01*
X2820517Y5871921D01*
X2819958Y5870041D01*
X2819755Y5868111D01*
X2819857Y5786780D01*
X2820111Y5785510D01*
X2820822Y5783681D01*
X2821838Y5782005D01*
X2823159Y5780582D01*
X2824226Y5779770D01*
X2825953Y5778855D01*
X2827832Y5778296D01*
X2831084Y5778195D01*
X2833624Y5778855D01*
X2836367Y5780582D01*
X2838450Y5783122D01*
X2839262Y5784900D01*
X2839770Y5787440D01*
X2839669Y5869432D01*
X2838754Y5872530D01*
X2837281Y5874715D01*
X2835351Y5876442D01*
X2833014Y5877560D01*
X2831744Y5877915D01*
G37*
G36*
X2829763Y5270906D02*
G01*
X2827172Y5270550D01*
X2825343Y5269839D01*
X2823667Y5268823D01*
X2822244Y5267502D01*
X2820517Y5264708D01*
X2819958Y5262829D01*
X2819755Y5260898D01*
X2819857Y5179568D01*
X2820111Y5178298D01*
X2820822Y5176469D01*
X2821838Y5174792D01*
X2823159Y5173370D01*
X2824226Y5172557D01*
X2825953Y5171643D01*
X2827832Y5171084D01*
X2831084Y5170982D01*
X2833624Y5171643D01*
X2836367Y5173370D01*
X2838450Y5175910D01*
X2839262Y5177688D01*
X2839770Y5180228D01*
X2839669Y5262219D01*
X2838754Y5265318D01*
X2837281Y5267502D01*
X2835351Y5269230D01*
X2833014Y5270347D01*
X2831744Y5270703D01*
G37*
G36*
X2789783Y5878118D02*
G01*
X2787802Y5877915D01*
X2784195Y5876442D01*
X2782265Y5874715D01*
X2780792Y5872530D01*
X2779877Y5869432D01*
X2779776Y5787440D01*
X2780284Y5784900D01*
X2781096Y5783122D01*
X2783179Y5780582D01*
X2785922Y5778855D01*
X2788462Y5778195D01*
X2791714Y5778296D01*
X2793593Y5778855D01*
X2795320Y5779770D01*
X2796387Y5780582D01*
X2797708Y5782005D01*
X2798724Y5783681D01*
X2799435Y5785510D01*
X2799689Y5786780D01*
X2799791Y5868111D01*
X2799588Y5870041D01*
X2799029Y5871921D01*
X2797302Y5874715D01*
X2795879Y5876036D01*
X2794203Y5877052D01*
X2792374Y5877763D01*
G37*
G36*
X2789783Y5270906D02*
G01*
X2787802Y5270703D01*
X2784195Y5269230D01*
X2782265Y5267502D01*
X2780792Y5265318D01*
X2779877Y5262219D01*
X2779776Y5180228D01*
X2780284Y5177688D01*
X2781096Y5175910D01*
X2783179Y5173370D01*
X2785922Y5171643D01*
X2788462Y5170982D01*
X2791714Y5171084D01*
X2793593Y5171643D01*
X2795320Y5172557D01*
X2796387Y5173370D01*
X2797708Y5174792D01*
X2798724Y5176469D01*
X2799435Y5178298D01*
X2799689Y5179568D01*
X2799791Y5260898D01*
X2799588Y5262829D01*
X2799029Y5264708D01*
X2797302Y5267502D01*
X2795879Y5268823D01*
X2794203Y5269839D01*
X2792374Y5270550D01*
G37*
G36*
X2666288Y5314391D02*
G01*
X2664307Y5314188D01*
X2661869Y5313375D01*
X2660700Y5312714D01*
X2658770Y5310987D01*
X2657297Y5308803D01*
X2656382Y5305704D01*
X2656281Y5303723D01*
X2656789Y5301183D01*
X2657602Y5299405D01*
X2659684Y5296865D01*
X2661259Y5295696D01*
X2663698Y5294731D01*
X2664968Y5294477D01*
X2747568Y5294477D01*
X2750718Y5295392D01*
X2753360Y5297322D01*
X2754223Y5298287D01*
X2755239Y5299964D01*
X2755950Y5301792D01*
X2756204Y5303062D01*
X2756204Y5305704D01*
X2755950Y5306974D01*
X2755239Y5308803D01*
X2754223Y5310479D01*
X2751836Y5312714D01*
X2750718Y5313375D01*
X2747568Y5314289D01*
G37*
G36*
X2666288Y5554370D02*
G01*
X2664307Y5554167D01*
X2661869Y5553354D01*
X2660700Y5552694D01*
X2658770Y5550966D01*
X2657297Y5548782D01*
X2656382Y5545683D01*
X2656281Y5543702D01*
X2656789Y5541162D01*
X2657602Y5539384D01*
X2659684Y5536844D01*
X2661259Y5535676D01*
X2663698Y5534710D01*
X2664968Y5534456D01*
X2747568Y5534456D01*
X2750718Y5535371D01*
X2753360Y5537301D01*
X2754223Y5538266D01*
X2755239Y5539943D01*
X2755950Y5541772D01*
X2756204Y5543042D01*
X2756204Y5545683D01*
X2755950Y5546953D01*
X2755239Y5548782D01*
X2754223Y5550458D01*
X2751836Y5552694D01*
X2750718Y5553354D01*
X2747568Y5554268D01*
G37*
G36*
X2665628Y5434380D02*
G01*
X2663088Y5433872D01*
X2660700Y5432704D01*
X2658770Y5430977D01*
X2657602Y5429402D01*
X2656789Y5427624D01*
X2656484Y5426354D01*
X2656281Y5423763D01*
X2656636Y5421833D01*
X2657297Y5419953D01*
X2659227Y5417312D01*
X2661259Y5415737D01*
X2663698Y5414721D01*
X2664968Y5414467D01*
X2746908Y5414416D01*
X2749499Y5414924D01*
X2752344Y5416448D01*
X2754223Y5418328D01*
X2755747Y5421172D01*
X2756103Y5422442D01*
X2756306Y5424424D01*
X2755950Y5426964D01*
X2755239Y5428843D01*
X2753817Y5430977D01*
X2751836Y5432704D01*
X2750718Y5433364D01*
X2748889Y5434076D01*
X2747568Y5434330D01*
G37*
G36*
X2665628Y5674360D02*
G01*
X2663088Y5673852D01*
X2660700Y5672683D01*
X2658770Y5670956D01*
X2657602Y5669381D01*
X2656789Y5667603D01*
X2656484Y5666333D01*
X2656281Y5663742D01*
X2656636Y5661812D01*
X2657297Y5659932D01*
X2659227Y5657291D01*
X2661259Y5655716D01*
X2663698Y5654700D01*
X2664968Y5654446D01*
X2746908Y5654395D01*
X2749499Y5654903D01*
X2752344Y5656427D01*
X2754223Y5658307D01*
X2755747Y5661152D01*
X2756103Y5662422D01*
X2756306Y5664403D01*
X2755950Y5666943D01*
X2755239Y5668822D01*
X2753817Y5670956D01*
X2751836Y5672683D01*
X2750718Y5673344D01*
X2748889Y5674055D01*
X2747568Y5674309D01*
G37*
G36*
X2665628Y5394350D02*
G01*
X2663088Y5393842D01*
X2660700Y5392674D01*
X2658770Y5390946D01*
X2657602Y5389372D01*
X2656789Y5387594D01*
X2656484Y5386324D01*
X2656281Y5383733D01*
X2656636Y5381802D01*
X2657297Y5379923D01*
X2659227Y5377281D01*
X2661259Y5375706D01*
X2663698Y5374690D01*
X2664968Y5374436D01*
X2746908Y5374386D01*
X2749499Y5374894D01*
X2752344Y5376418D01*
X2754223Y5378297D01*
X2755747Y5381142D01*
X2756103Y5382412D01*
X2756306Y5384393D01*
X2755950Y5386933D01*
X2755239Y5388813D01*
X2753817Y5390946D01*
X2751836Y5392674D01*
X2750718Y5393334D01*
X2748889Y5394045D01*
X2747568Y5394299D01*
G37*
G36*
X2666288Y5634380D02*
G01*
X2664307Y5634177D01*
X2661869Y5633364D01*
X2660700Y5632704D01*
X2658770Y5630976D01*
X2657297Y5628792D01*
X2656382Y5625693D01*
X2656281Y5623712D01*
X2656789Y5621172D01*
X2657602Y5619394D01*
X2659684Y5616854D01*
X2661259Y5615686D01*
X2663698Y5614720D01*
X2664968Y5614466D01*
X2747568Y5614466D01*
X2750718Y5615381D01*
X2753360Y5617311D01*
X2754223Y5618276D01*
X2755239Y5619953D01*
X2755950Y5621782D01*
X2756204Y5623052D01*
X2756204Y5625693D01*
X2755950Y5626963D01*
X2755239Y5628792D01*
X2754223Y5630468D01*
X2751836Y5632704D01*
X2750718Y5633364D01*
X2747568Y5634278D01*
G37*
G36*
X2665628Y5514390D02*
G01*
X2663088Y5513882D01*
X2660700Y5512714D01*
X2658770Y5510987D01*
X2657602Y5509412D01*
X2656789Y5507634D01*
X2656484Y5506364D01*
X2656281Y5503773D01*
X2656636Y5501843D01*
X2657297Y5499963D01*
X2659227Y5497322D01*
X2661259Y5495747D01*
X2663698Y5494731D01*
X2664968Y5494477D01*
X2746908Y5494426D01*
X2749499Y5494934D01*
X2752344Y5496458D01*
X2754223Y5498338D01*
X2755747Y5501182D01*
X2756255Y5503773D01*
X2756204Y5505704D01*
X2755950Y5506974D01*
X2755239Y5508853D01*
X2753817Y5510987D01*
X2751836Y5512714D01*
X2750718Y5513374D01*
X2748889Y5514086D01*
X2747568Y5514340D01*
G37*
G36*
X2666288Y5754370D02*
G01*
X2664307Y5754166D01*
X2661869Y5753354D01*
X2660700Y5752693D01*
X2658770Y5750966D01*
X2657297Y5748782D01*
X2656382Y5745683D01*
X2656281Y5743702D01*
X2656789Y5741162D01*
X2657602Y5739384D01*
X2659684Y5736844D01*
X2662428Y5735116D01*
X2664968Y5734456D01*
X2747568Y5734456D01*
X2750718Y5735370D01*
X2753360Y5737301D01*
X2754223Y5738266D01*
X2755239Y5739942D01*
X2755950Y5741771D01*
X2756204Y5743041D01*
X2756204Y5745683D01*
X2755950Y5746953D01*
X2755239Y5748782D01*
X2754223Y5750458D01*
X2751836Y5752693D01*
X2750718Y5753354D01*
X2747568Y5754268D01*
G37*
G36*
X2665628Y5354370D02*
G01*
X2663088Y5353862D01*
X2660700Y5352694D01*
X2658770Y5350967D01*
X2657602Y5349392D01*
X2656789Y5347614D01*
X2656484Y5346344D01*
X2656281Y5343753D01*
X2656636Y5341823D01*
X2657297Y5339943D01*
X2659227Y5337302D01*
X2661259Y5335727D01*
X2663698Y5334711D01*
X2664968Y5334457D01*
X2746908Y5334406D01*
X2749499Y5334914D01*
X2752344Y5336438D01*
X2754223Y5338318D01*
X2755747Y5341162D01*
X2756103Y5342432D01*
X2756306Y5344414D01*
X2755950Y5346954D01*
X2755239Y5348833D01*
X2753817Y5350967D01*
X2751836Y5352694D01*
X2750718Y5353354D01*
X2748889Y5354066D01*
X2747568Y5354320D01*
G37*
G36*
X2665628Y5594350D02*
G01*
X2663088Y5593842D01*
X2660700Y5592673D01*
X2658770Y5590946D01*
X2657602Y5589371D01*
X2656789Y5587593D01*
X2656484Y5586323D01*
X2656281Y5583732D01*
X2656636Y5581802D01*
X2657297Y5579922D01*
X2659227Y5577281D01*
X2661259Y5575706D01*
X2663698Y5574690D01*
X2664968Y5574436D01*
X2746908Y5574385D01*
X2749499Y5574893D01*
X2752344Y5576417D01*
X2754223Y5578297D01*
X2755747Y5581142D01*
X2756255Y5583732D01*
X2756204Y5585663D01*
X2755950Y5586933D01*
X2755239Y5588812D01*
X2753817Y5590946D01*
X2751836Y5592673D01*
X2750718Y5593334D01*
X2748889Y5594045D01*
X2747568Y5594299D01*
G37*
G36*
X2665628Y5474360D02*
G01*
X2663088Y5473852D01*
X2660700Y5472684D01*
X2658770Y5470956D01*
X2657602Y5469382D01*
X2656789Y5467604D01*
X2656484Y5466334D01*
X2656281Y5463743D01*
X2656636Y5461812D01*
X2657297Y5459933D01*
X2659227Y5457291D01*
X2661259Y5455716D01*
X2663698Y5454700D01*
X2664968Y5454446D01*
X2746908Y5454396D01*
X2749499Y5454904D01*
X2752344Y5456428D01*
X2754223Y5458307D01*
X2755747Y5461152D01*
X2756255Y5463743D01*
X2756204Y5465673D01*
X2755950Y5466943D01*
X2755239Y5468823D01*
X2753817Y5470956D01*
X2751836Y5472684D01*
X2750718Y5473344D01*
X2748889Y5474055D01*
X2747568Y5474309D01*
G37*
G36*
X2666288Y5714390D02*
G01*
X2664307Y5714187D01*
X2661869Y5713374D01*
X2660700Y5712714D01*
X2658770Y5710986D01*
X2657297Y5708802D01*
X2656382Y5705703D01*
X2656281Y5703722D01*
X2656789Y5701182D01*
X2657602Y5699404D01*
X2659684Y5696864D01*
X2662428Y5695137D01*
X2664968Y5694476D01*
X2747568Y5694476D01*
X2750718Y5695391D01*
X2753360Y5697321D01*
X2754223Y5698286D01*
X2755239Y5699963D01*
X2755950Y5701792D01*
X2756204Y5703062D01*
X2756204Y5705703D01*
X2755950Y5706973D01*
X2755239Y5708802D01*
X2754223Y5710478D01*
X2751836Y5712714D01*
X2750718Y5713374D01*
X2747568Y5714288D01*
G37*
G36*
X1093165Y5516778D02*
G01*
X1093165Y5486806D01*
X1208125Y5486806D01*
X1208125Y5516778D01*
G37*
G36*
X1093165Y5566816D02*
G01*
X1093165Y5536793D01*
X1208125Y5536793D01*
X1208125Y5566816D01*
G37*
G36*
X1093165Y5826810D02*
G01*
X1093165Y5766816D01*
X1208125Y5766816D01*
X1208125Y5826810D01*
G37*
G36*
X1093165Y5466791D02*
G01*
X1093165Y5436819D01*
X1208125Y5436819D01*
X1208125Y5466791D01*
G37*
G36*
X1093165Y5616803D02*
G01*
X1093165Y5586780D01*
X1208125Y5586780D01*
X1208125Y5616803D01*
G37*
G36*
X1093165Y5666790D02*
G01*
X1093165Y5636818D01*
X1208125Y5636818D01*
X1208125Y5666790D01*
G37*
G36*
X1093165Y5416804D02*
G01*
X1093165Y5386781D01*
X1208125Y5386781D01*
X1208125Y5416804D01*
G37*
G36*
X1093165Y5366816D02*
G01*
X1093165Y5336794D01*
X1208125Y5336794D01*
X1208125Y5366816D01*
G37*
G36*
X1093165Y5746800D02*
G01*
X1093165Y5686806D01*
X1208125Y5686806D01*
X1208125Y5746800D01*
G37*
G36*
X1093165Y5316778D02*
G01*
X1093165Y5286806D01*
X1208125Y5286806D01*
X1208125Y5316778D01*
G37*
G36*
X1093165Y5266791D02*
G01*
X1093165Y5206796D01*
X1208125Y5206796D01*
X1208125Y5266791D01*
G37*
G36*
X1093165Y5186781D02*
G01*
X1093165Y5126786D01*
X1208125Y5126786D01*
X1208125Y5186781D01*
G37*
G36*
X1038148Y5958789D02*
G01*
X1033170Y5958535D01*
X1028242Y5957824D01*
X1023416Y5956554D01*
X1018692Y5954877D01*
X1014221Y5952693D01*
X1009954Y5950102D01*
X1005992Y5947105D01*
X1002334Y5943701D01*
X999032Y5939993D01*
X996137Y5935929D01*
X993648Y5931611D01*
X991616Y5927090D01*
X989990Y5922314D01*
X988872Y5917488D01*
X988263Y5912510D01*
X988161Y5907532D01*
X988517Y5902604D01*
X989380Y5897676D01*
X990752Y5892850D01*
X992581Y5888228D01*
X994816Y5883808D01*
X997559Y5879592D01*
X1000658Y5875731D01*
X1004112Y5872124D01*
X1007922Y5868924D01*
X1012088Y5866130D01*
X1016457Y5863742D01*
X1021029Y5861812D01*
X1025804Y5860338D01*
X1030681Y5859373D01*
X1035659Y5858865D01*
X1148130Y5858814D01*
X1153109Y5859068D01*
X1158036Y5859780D01*
X1162862Y5860999D01*
X1167587Y5862726D01*
X1172057Y5864860D01*
X1176324Y5867501D01*
X1180287Y5870498D01*
X1183944Y5873902D01*
X1187246Y5877610D01*
X1190142Y5881674D01*
X1192631Y5885992D01*
X1194663Y5890514D01*
X1196289Y5895238D01*
X1197406Y5900115D01*
X1198016Y5905042D01*
X1198118Y5910021D01*
X1197762Y5914999D01*
X1196898Y5919927D01*
X1195527Y5924702D01*
X1193698Y5929376D01*
X1191463Y5933795D01*
X1188720Y5937961D01*
X1185621Y5941872D01*
X1182166Y5945428D01*
X1178356Y5948680D01*
X1174191Y5951474D01*
X1169822Y5953861D01*
X1165250Y5955792D01*
X1160475Y5957265D01*
X1155598Y5958230D01*
X1150620Y5958738D01*
G37*
G36*
X1038148Y5094782D02*
G01*
X1033170Y5094528D01*
X1028242Y5093817D01*
X1023416Y5092547D01*
X1018692Y5090871D01*
X1014221Y5088686D01*
X1009954Y5086096D01*
X1005992Y5083098D01*
X1002334Y5079695D01*
X999032Y5075986D01*
X996137Y5071922D01*
X993648Y5067604D01*
X991616Y5063083D01*
X989990Y5058308D01*
X988872Y5053482D01*
X988263Y5048504D01*
X988161Y5043525D01*
X988517Y5038598D01*
X989380Y5033670D01*
X990752Y5028844D01*
X992581Y5024221D01*
X994816Y5019802D01*
X997559Y5015585D01*
X1000658Y5011724D01*
X1004112Y5008118D01*
X1007922Y5004917D01*
X1012088Y5002123D01*
X1016457Y4999736D01*
X1021029Y4997805D01*
X1025804Y4996332D01*
X1030681Y4995367D01*
X1035659Y4994859D01*
X1148130Y4994808D01*
X1153109Y4995062D01*
X1158036Y4995773D01*
X1162862Y4996992D01*
X1167587Y4998720D01*
X1172057Y5000904D01*
X1176324Y5003495D01*
X1180287Y5006492D01*
X1183944Y5009896D01*
X1187246Y5013604D01*
X1190142Y5017668D01*
X1192631Y5021986D01*
X1194663Y5026507D01*
X1196289Y5031232D01*
X1197406Y5036108D01*
X1198016Y5041036D01*
X1198118Y5046014D01*
X1197762Y5050993D01*
X1196898Y5055920D01*
X1195527Y5060696D01*
X1193698Y5065369D01*
X1191463Y5069789D01*
X1188720Y5073954D01*
X1185621Y5077866D01*
X1182166Y5081422D01*
X1178356Y5084673D01*
X1174191Y5087467D01*
X1169822Y5089855D01*
X1165250Y5091785D01*
X1160475Y5093258D01*
X1155598Y5094224D01*
X1150620Y5094732D01*
G37*
G36*
X638149Y5958789D02*
G01*
X633171Y5958535D01*
X628243Y5957824D01*
X623417Y5956554D01*
X618744Y5954877D01*
X614222Y5952693D01*
X610006Y5950102D01*
X605993Y5947105D01*
X602386Y5943701D01*
X599084Y5939993D01*
X596138Y5935929D01*
X593648Y5931611D01*
X591616Y5927090D01*
X590042Y5922314D01*
X588924Y5917488D01*
X588314Y5912510D01*
X588162Y5907532D01*
X588518Y5902604D01*
X589432Y5897676D01*
X590753Y5892850D01*
X592582Y5888228D01*
X594868Y5883808D01*
X597560Y5879592D01*
X600659Y5875731D01*
X604164Y5872124D01*
X607974Y5868924D01*
X612089Y5866130D01*
X616458Y5863742D01*
X621030Y5861812D01*
X625805Y5860338D01*
X630682Y5859373D01*
X635660Y5858865D01*
X718159Y5858814D01*
X723138Y5859068D01*
X728065Y5859780D01*
X732891Y5860999D01*
X737565Y5862726D01*
X742086Y5864860D01*
X746302Y5867501D01*
X750316Y5870498D01*
X753922Y5873902D01*
X757224Y5877610D01*
X760171Y5881674D01*
X762660Y5885992D01*
X764692Y5890514D01*
X766267Y5895238D01*
X767384Y5900115D01*
X767994Y5905042D01*
X768146Y5910021D01*
X767740Y5914999D01*
X766876Y5919927D01*
X765556Y5924702D01*
X763727Y5929376D01*
X761441Y5933795D01*
X758748Y5937961D01*
X755650Y5941872D01*
X752144Y5945428D01*
X748334Y5948680D01*
X744220Y5951474D01*
X739851Y5953861D01*
X735279Y5955792D01*
X730504Y5957265D01*
X725627Y5958230D01*
X720648Y5958738D01*
G37*
G36*
X638149Y5094782D02*
G01*
X633171Y5094528D01*
X628243Y5093817D01*
X623417Y5092547D01*
X618744Y5090871D01*
X614222Y5088686D01*
X610006Y5086096D01*
X605993Y5083098D01*
X602386Y5079695D01*
X599084Y5075986D01*
X596138Y5071922D01*
X593648Y5067604D01*
X591616Y5063083D01*
X590042Y5058308D01*
X588924Y5053482D01*
X588314Y5048504D01*
X588162Y5043525D01*
X588518Y5038598D01*
X589432Y5033670D01*
X590753Y5028844D01*
X592582Y5024221D01*
X594868Y5019802D01*
X597560Y5015585D01*
X600659Y5011724D01*
X604164Y5008118D01*
X607974Y5004917D01*
X612089Y5002123D01*
X616458Y4999736D01*
X621030Y4997805D01*
X625805Y4996332D01*
X630682Y4995367D01*
X635660Y4994859D01*
X718159Y4994808D01*
X723138Y4995062D01*
X728065Y4995773D01*
X732891Y4996992D01*
X737565Y4998720D01*
X742086Y5000904D01*
X746302Y5003495D01*
X750316Y5006492D01*
X753922Y5009896D01*
X757224Y5013604D01*
X760171Y5017668D01*
X762660Y5021986D01*
X764692Y5026507D01*
X766267Y5031232D01*
X767384Y5036108D01*
X767994Y5041036D01*
X768146Y5046014D01*
X767740Y5050993D01*
X766876Y5055920D01*
X765556Y5060696D01*
X763727Y5065369D01*
X761441Y5069789D01*
X758748Y5073954D01*
X755650Y5077866D01*
X752144Y5081422D01*
X748334Y5084673D01*
X744220Y5087467D01*
X739851Y5089855D01*
X735279Y5091785D01*
X730504Y5093258D01*
X725627Y5094224D01*
X720648Y5094732D01*
G37*
D10*
G01*
X2025802Y4699000D03*
G01*
X1885797Y4699000D03*
G01*
X1149197Y4775200D03*
G01*
X1289202Y4775200D03*
G01*
X3359302Y6210300D03*
G01*
X3219297Y6210300D03*
G01*
X2965602Y6184900D03*
G01*
X2825597Y6184900D03*
G01*
X2521102Y4699000D03*
G01*
X2381097Y4699000D03*
G01*
X3778402Y6235700D03*
G01*
X3638397Y6235700D03*
G01*
X3968902Y5575300D03*
G01*
X3828897Y5575300D03*
G01*
X2812897Y4749800D03*
G01*
X2952902Y4749800D03*
G01*
X2190597Y6172200D03*
G01*
X2330602Y6172200D03*
D11*
G01*
X1585950Y5816600D03*
G01*
X1585950Y5689600D03*
G01*
X1585950Y5562600D03*
G01*
X1585950Y5435600D03*
G01*
X2122449Y5816600D03*
G01*
X2122449Y5689600D03*
G01*
X2122449Y5562600D03*
G01*
X2122449Y5435600D03*
D12*
G01*
X4697704Y6007100D03*
G01*
X4547895Y6007100D03*
D13*
G01*
X4806111Y5173700D03*
G01*
X4806111Y5773699D03*
G01*
X5176088Y5173700D03*
G01*
X5176088Y5773699D03*
D14*
G01*
X2368273Y5210002D03*
G01*
X2178324Y5210002D03*
G01*
X2178321Y4949997D03*
G01*
X2273236Y4949997D03*
G01*
X2368268Y4950000D03*
D15*
G01*
X3983499Y5977788D03*
G01*
X3763500Y5977788D03*
D17*
G01*
X3763492Y5807786D03*
D18*
G01*
X3983499Y5807786D03*
M02*
