G04 Layer: TopLayer*
G04 EasyEDA v6.5.51, 2026-01-01 11:10:02*
G04 c2e0b91a54b643c29b893d635b68bbd8,b0fcb86846164242a958a805a75853bb,10*
G04 Gerber Generator version 0.2*
G04 Scale: 100 percent, Rotated: No, Reflected: No *
G04 Dimensions in millimeters *
G04 leading zeros omitted , absolute positions ,4 integer and 5 decimal *
%FSLAX45Y45*%
%MOMM*%

%AMMACRO1*21,1,$1,$2,0,0,$3*%
%ADD10C,0.1500*%
%ADD11C,0.2540*%
%ADD12R,0.8000X0.9000*%
%ADD13O,1.864995X0.629996*%
%ADD14R,0.8000X0.8000*%
%ADD15MACRO1,0.864X0.8065X90.0000*%
%ADD16C,0.0106*%
%ADD17MACRO1,0.864X0.8065X-90.0000*%
%ADD18R,0.7500X1.0000*%
%ADD19R,4.6000X4.6000*%
%ADD20O,0.999998X0.2*%
%ADD21O,0.2X0.999998*%
%ADD22MACRO1,0.6223X1.1049X0.0000*%
%ADD23R,1.1500X0.6000*%
%ADD24R,1.1500X0.3000*%
%ADD25MACRO1,1.2X1.4X-90.0000*%
%ADD26R,1.4000X1.2000*%
%ADD27MACRO1,1.2X1.4X90.0000*%
%ADD28C,1.8000*%
%ADD29O,1.799996X0.999998*%
%ADD30O,2.099996X0.999998*%
%ADD31C,0.6100*%
%ADD32C,0.6200*%

%LPD*%
D10*
X2590794Y5626089D02*
G01*
X2706390Y5624288D01*
D11*
X2706293Y5584367D02*
G01*
X2650667Y5584367D01*
X2628900Y5562600D01*
X2527300Y5562600D01*
X2527300Y5753092D01*
D10*
X2670302Y5588000D02*
G01*
X2670302Y5584444D01*
D11*
X3378200Y5778500D02*
G01*
X3344925Y5745226D01*
X2789783Y5828098D02*
G01*
X2680131Y5828098D01*
X2605125Y5753092D01*
X4806086Y5173692D02*
G01*
X4740681Y5173692D01*
D10*
X2794000Y4902200D02*
G01*
X2794000Y4927600D01*
X2959100Y5092700D01*
X2869691Y5144007D01*
X2869691Y5220970D01*
D11*
X3638397Y6162768D02*
G01*
X3626281Y6162768D01*
X3608476Y6144963D01*
X3638397Y6235692D02*
G01*
X3638397Y6162768D01*
X2825597Y6184892D02*
G01*
X2757677Y6184892D01*
X2122677Y6184892D02*
G01*
X2122677Y6172192D01*
X1751736Y6184892D02*
G01*
X2122677Y6184892D01*
X2812897Y4749792D02*
G01*
X2880817Y4749792D01*
X5176088Y5773691D02*
G01*
X5143398Y5773691D01*
X5143398Y5773691D02*
G01*
X5110683Y5773691D01*
X3505200Y4749792D02*
G01*
X3432098Y4676691D01*
X2896870Y4676691D01*
X2880817Y4692743D01*
X2880817Y4749792D01*
X3219297Y6210292D02*
G01*
X3151377Y6210292D01*
X2122677Y6184892D02*
G01*
X2128393Y6184892D01*
X2168448Y6224948D01*
X2168448Y6237902D01*
X2175840Y6245293D01*
X2697276Y6245293D01*
X2757677Y6184892D01*
X2757677Y6184892D02*
G01*
X2830779Y6257993D01*
X3103676Y6257993D01*
X3151377Y6210292D01*
X3219297Y6210292D02*
G01*
X3287217Y6210292D01*
X1281836Y6184892D02*
G01*
X1308379Y6184892D01*
X5143398Y5773691D02*
G01*
X4681397Y6235692D01*
X3778402Y6235692D01*
X3710482Y6235692D02*
G01*
X3710482Y6303611D01*
X3704691Y6309403D01*
X3318408Y6309403D01*
X3287217Y6278211D01*
X3287217Y6210292D01*
X3778402Y6235692D02*
G01*
X3710482Y6235692D01*
X3913682Y5422892D02*
G01*
X3913682Y5354972D01*
X3908501Y5349791D01*
X3623945Y5349791D01*
X3968902Y5575300D02*
G01*
X3968902Y5478111D01*
X3913682Y5422894D01*
X1308379Y6184892D02*
G01*
X1370456Y6184892D01*
X1415211Y6140137D01*
X1415211Y6140137D02*
G01*
X1531264Y6256190D01*
X1680438Y6256190D01*
X1751736Y6184892D01*
X1585950Y5435592D02*
G01*
X1460627Y5435592D01*
X1445920Y5420885D01*
X3427222Y6210292D02*
G01*
X3659708Y5977806D01*
X3763492Y5977806D01*
X1150645Y5716795D02*
G01*
X1094206Y5716795D01*
X1015695Y5638284D01*
X1015695Y5310471D01*
X1089380Y5236786D01*
X1150645Y5236786D01*
X2178329Y4991574D02*
G01*
X2178329Y5032545D01*
X2178329Y4949995D02*
G01*
X2178329Y4991574D01*
X2178329Y5032545D02*
G01*
X2178329Y5033154D01*
X2178329Y5032545D02*
G01*
X2192121Y5046337D01*
X2355088Y5046337D01*
X2368270Y5033154D01*
X2368270Y4991574D02*
G01*
X2368270Y5033154D01*
X3300501Y5836988D02*
G01*
X3238677Y5836988D01*
X3229787Y5828098D01*
X2368270Y4991574D02*
G01*
X2368270Y4949995D01*
X3454400Y5842000D02*
G01*
X3454400Y5704331D01*
X3313429Y5704331D01*
X3556000Y5778500D02*
G01*
X3556000Y5572472D01*
X3598938Y5529534D01*
X3313531Y5304375D02*
G01*
X3373780Y5304375D01*
X3789095Y5719691D01*
X4138980Y5719691D01*
X4145229Y5725939D01*
X4331588Y5725939D01*
X4406036Y5651492D01*
X2589022Y4698992D02*
G01*
X2662123Y4625891D01*
X3553713Y4625891D01*
X3772865Y4845042D01*
X3772865Y4845042D02*
G01*
X3855415Y4762492D01*
X4051300Y4762492D01*
X2178329Y5209989D02*
G01*
X2178329Y5126829D01*
X2521102Y4698992D02*
G01*
X2453182Y4698992D01*
X3313531Y5304375D02*
G01*
X3772865Y4845042D01*
X2178329Y5289897D02*
G01*
X2178329Y5293149D01*
X2178329Y5209989D02*
G01*
X2178329Y5289897D01*
X2605125Y5753092D02*
G01*
X2031085Y5753092D01*
X1997405Y5719411D01*
X1997405Y5411690D01*
X2115947Y5293149D01*
X2178329Y5293149D01*
X2178329Y5126829D02*
G01*
X2205227Y5099931D01*
X2368499Y5099931D01*
X2431999Y5036431D01*
X2431999Y4775192D01*
X1289202Y4775192D02*
G01*
X2431999Y4775192D01*
X2431999Y4775192D02*
G01*
X2453182Y4754008D01*
X2453182Y4698992D01*
D10*
X2706291Y5504408D02*
G01*
X2483891Y5504408D01*
X2463800Y5524500D01*
D11*
X1131163Y6184892D02*
G01*
X1199413Y6184892D01*
X2330602Y6172192D02*
G01*
X2635580Y6172192D01*
X1150645Y5601784D02*
G01*
X1236065Y5601784D01*
X2952902Y4749792D02*
G01*
X3020822Y4749792D01*
X1150645Y5236786D02*
G01*
X1974697Y5236786D01*
X2178329Y5033154D01*
X2190597Y6172192D02*
G01*
X2122677Y6172192D01*
X4255363Y5651492D02*
G01*
X4323613Y5651492D01*
X1150645Y5451797D02*
G01*
X1236065Y5451797D01*
X1236243Y5551619D02*
G01*
X1574977Y5551619D01*
X1585950Y5562592D01*
X1236065Y5551797D02*
G01*
X1236243Y5551619D01*
X1236243Y5551619D02*
G01*
X1236243Y5451975D01*
X1236065Y5451797D01*
X1150645Y5501784D02*
G01*
X1065225Y5501784D01*
X1107947Y5401784D02*
G01*
X1065225Y5401784D01*
X1107947Y5401784D02*
G01*
X1150645Y5401784D01*
X2521102Y4698992D02*
G01*
X2589022Y4698992D01*
X3359302Y6210292D02*
G01*
X3427222Y6210292D01*
X1585950Y5689592D02*
G01*
X1610487Y5689592D01*
X1707845Y5592234D01*
X1707845Y5521317D01*
X1685620Y5499092D01*
X1441322Y5499092D01*
X1344015Y5401784D01*
X1150645Y5401784D01*
X4330700Y5092700D02*
G01*
X4659690Y5092700D01*
X4740683Y5173692D01*
X2122449Y5562592D02*
G01*
X2321229Y5562592D01*
X1601063Y6184892D02*
G01*
X1669313Y6184892D01*
X678154Y5044787D02*
G01*
X1093139Y5044787D01*
X678154Y5908794D02*
G01*
X1093139Y5908794D01*
X1093139Y5044787D02*
G01*
X1150645Y5102293D01*
X1150645Y5156801D01*
X2381097Y4698992D02*
G01*
X2347137Y4698992D01*
X2347137Y4698992D02*
G01*
X2025802Y4698992D01*
X1149197Y4866657D02*
G01*
X2273071Y4866657D01*
X2273249Y4866835D01*
X2025802Y4698992D02*
G01*
X1957882Y4698992D01*
X2273249Y4949995D02*
G01*
X2273249Y4866835D01*
X1149197Y4866657D02*
G01*
X1149197Y4988730D01*
X1093139Y5044787D01*
X1149197Y4822563D02*
G01*
X1149197Y4776436D01*
X1299743Y4625891D01*
X1952701Y4625891D01*
X1957882Y4631072D01*
X1957882Y4698992D01*
X1149197Y4775192D02*
G01*
X1149197Y4822563D01*
X2122449Y5689592D02*
G01*
X2297531Y5689592D01*
X2297534Y5689594D02*
G01*
X2297534Y5689600D01*
X2463800Y5689600D01*
X1149197Y4822563D02*
G01*
X1149197Y4866657D01*
X1093139Y5908794D02*
G01*
X1150645Y5851288D01*
X1150645Y5796805D01*
X1150645Y5301785D02*
G01*
X1625320Y5301785D01*
X1766874Y5443339D01*
X1766874Y6019081D01*
X1669313Y6116642D01*
X1669313Y6184892D01*
X1065225Y5501784D02*
G01*
X1065047Y5501606D01*
X1065047Y5401962D01*
X1065225Y5401784D01*
X1150645Y5551797D02*
G01*
X1236065Y5551797D01*
X4323613Y5651492D02*
G01*
X4323613Y5583242D01*
X4326661Y5580194D01*
X4474438Y5580194D01*
X4697704Y5803460D01*
X4697704Y6007117D01*
X2965602Y6184892D02*
G01*
X3033522Y6184892D01*
X1199413Y6184892D02*
G01*
X1199413Y6116642D01*
X1238173Y6077882D01*
X1238173Y5603892D01*
X1236065Y5601784D01*
X2833624Y5050180D02*
G01*
X2829763Y5054041D01*
X2829763Y5180228D01*
X4547882Y6007087D02*
G01*
X4305287Y6007087D01*
X4191000Y5892800D01*
X3149777Y5220886D02*
G01*
X3149777Y4878748D01*
X3020822Y4749792D01*
X5110683Y5773420D02*
G01*
X4902200Y5321300D01*
X3968902Y5575300D01*
X4495800Y4762500D02*
G01*
X4318000Y4762500D01*
X3924300Y5156200D01*
X3683000Y5156200D01*
X3505200Y5321300D01*
D10*
X3568700Y4953000D02*
G01*
X3340100Y4953000D01*
X3225800Y5067300D01*
D11*
X2178329Y5293149D02*
G01*
X2192147Y5306966D01*
X2547111Y5306966D01*
X2633192Y5220886D01*
X2789783Y5220886D01*
D10*
X3225800Y6083300D02*
G01*
X3429000Y6083300D01*
X3517900Y5994400D01*
X3530600Y5994400D01*
X3543300Y5981700D01*
D11*
X3073400Y6032500D02*
G01*
X3183610Y6034803D01*
X3033522Y6184892D01*
X3073400Y6032500D02*
G01*
X3149777Y5881946D01*
X3149777Y5828098D01*
X3763518Y5807710D02*
G01*
X3627627Y5943600D01*
X3530600Y5892800D01*
X3505200Y5892800D01*
X3365500Y6032500D01*
X3289300Y6032500D01*
X3289300Y6019800D01*
X3183610Y6019800D01*
D10*
X3213100Y5930900D02*
G01*
X3189757Y5907557D01*
X3189757Y5828106D01*
X3313521Y5664380D02*
G01*
X3390719Y5664380D01*
X3429000Y5626100D01*
X2540000Y5448300D02*
G01*
X2706293Y5464378D01*
X2706278Y5463539D01*
D12*
G01*
X2025802Y4699000D03*
G01*
X1885797Y4699000D03*
G01*
X1149197Y4775200D03*
G01*
X1289202Y4775200D03*
G01*
X3359302Y6210300D03*
G01*
X3219297Y6210300D03*
G01*
X2965602Y6184900D03*
G01*
X2825597Y6184900D03*
G01*
X2521102Y4699000D03*
G01*
X2381097Y4699000D03*
G01*
X3778402Y6235700D03*
G01*
X3638397Y6235700D03*
G01*
X3968902Y5575300D03*
G01*
X3828897Y5575300D03*
G01*
X2812897Y4749800D03*
G01*
X2952902Y4749800D03*
G01*
X2190597Y6172200D03*
G01*
X2330602Y6172200D03*
D13*
G01*
X1585950Y5816600D03*
G01*
X1585950Y5689600D03*
G01*
X1585950Y5562600D03*
G01*
X1585950Y5435600D03*
G01*
X2122449Y5816600D03*
G01*
X2122449Y5689600D03*
G01*
X2122449Y5562600D03*
G01*
X2122449Y5435600D03*
D14*
G01*
X4697704Y6007100D03*
G01*
X4547895Y6007100D03*
D15*
G01*
X1751724Y6184900D03*
G01*
X1601075Y6184900D03*
G01*
X1281824Y6184900D03*
G01*
X1131175Y6184900D03*
D17*
G01*
X4255375Y5651500D03*
G01*
X4406024Y5651500D03*
D18*
G01*
X4806111Y5173700D03*
G01*
X4806111Y5773699D03*
G01*
X5176088Y5173700D03*
G01*
X5176088Y5773699D03*
D19*
G01*
X3009925Y5524220D03*
D20*
G01*
X2706293Y5744362D03*
G01*
X2706293Y5704382D03*
G01*
X2706293Y5664377D03*
G01*
X2706293Y5624372D03*
G01*
X2706293Y5584367D03*
G01*
X2706293Y5544362D03*
G01*
X2706293Y5504408D03*
G01*
X2706293Y5464378D03*
G01*
X2706293Y5424398D03*
G01*
X2706293Y5384368D03*
G01*
X2706293Y5344388D03*
G01*
X2706293Y5304383D03*
G01*
X3313506Y5304383D03*
G01*
X3313506Y5344388D03*
G01*
X3313506Y5384368D03*
G01*
X3313506Y5424398D03*
G01*
X3313506Y5464378D03*
G01*
X3313506Y5504408D03*
G01*
X3313506Y5544362D03*
G01*
X3313506Y5584367D03*
G01*
X3313506Y5624372D03*
G01*
X3313506Y5664377D03*
G01*
X3313506Y5704382D03*
G01*
X3313506Y5744362D03*
D21*
G01*
X3229787Y5220893D03*
G01*
X3189757Y5220893D03*
G01*
X3149777Y5220893D03*
G01*
X3109798Y5220893D03*
G01*
X3069793Y5220893D03*
G01*
X3029788Y5220893D03*
G01*
X2989783Y5220893D03*
G01*
X2949752Y5220893D03*
G01*
X2909798Y5220893D03*
G01*
X2869793Y5220893D03*
G01*
X2829763Y5220893D03*
G01*
X2789758Y5220893D03*
G01*
X2789758Y5828106D03*
G01*
X2829763Y5828106D03*
G01*
X2869793Y5828106D03*
G01*
X2909798Y5828106D03*
G01*
X2949752Y5828106D03*
G01*
X2989783Y5828106D03*
G01*
X3029737Y5828106D03*
G01*
X3069793Y5828106D03*
G01*
X3109747Y5828106D03*
G01*
X3149777Y5828106D03*
G01*
X3189757Y5828106D03*
G01*
X3229787Y5828106D03*
D22*
G01*
X2368273Y5210002D03*
G01*
X2178324Y5210002D03*
G01*
X2178321Y4949997D03*
G01*
X2273236Y4949997D03*
G01*
X2368268Y4950000D03*
D23*
G01*
X1150645Y5796787D03*
G01*
X1150645Y5716803D03*
G01*
X1150645Y5156809D03*
G01*
X1150645Y5236794D03*
D24*
G01*
X1150645Y5301792D03*
G01*
X1150645Y5351805D03*
G01*
X1150645Y5401792D03*
G01*
X1150645Y5451805D03*
G01*
X1150645Y5501792D03*
G01*
X1150645Y5551804D03*
G01*
X1150645Y5601792D03*
G01*
X1150645Y5651804D03*
D25*
G01*
X3983499Y5977788D03*
G01*
X3763500Y5977788D03*
D26*
G01*
X3763492Y5807786D03*
D27*
G01*
X3983499Y5807786D03*
D28*
G01*
X4051300Y4762500D03*
G01*
X3505200Y4749800D03*
G01*
X4495800Y4762500D03*
G01*
X4902200Y4775200D03*
G01*
X5207000Y4787900D03*
D29*
G01*
X678154Y5908802D03*
D30*
G01*
X1093139Y5044795D03*
G01*
X1093139Y5908802D03*
D29*
G01*
X678154Y5044795D03*
D31*
G01*
X4330700Y5092700D03*
G01*
X2540000Y5448300D03*
G01*
X2463800Y5689600D03*
G01*
X2321229Y5562600D03*
G01*
X3300501Y5836996D03*
G01*
X3608476Y6144971D03*
G01*
X1415211Y6140145D03*
G01*
X1445920Y5420893D03*
G01*
X3623945Y5349798D03*
G01*
X3454400Y5842000D03*
G01*
X2635580Y6172200D03*
D32*
G01*
X2833624Y5050180D03*
G01*
X4200118Y5901893D03*
G01*
X3505200Y5321300D03*
G01*
X3828897Y5575300D03*
G01*
X3429000Y5626100D03*
G01*
X3359302Y6210300D03*
G01*
X3213100Y5930900D03*
G01*
X1885797Y4699000D03*
G01*
X2178329Y4950002D03*
G01*
X3378200Y5778500D03*
G01*
X3556000Y5778500D03*
G01*
X3568700Y4953000D03*
G01*
X3225800Y5067300D03*
G01*
X3225800Y6083300D03*
G01*
X3543300Y5981700D03*
G01*
X2297531Y5689600D03*
G01*
X2794000Y4902200D03*
D31*
G01*
X2590800Y5626100D03*
G01*
X2463800Y5524500D03*
M02*
